<svg width="24" height="24" viewBox="0 0 24 24" fill="none" xmlns="http://www.w3.org/2000/svg">
<path d="M20.4064 3.20996H3.59356C2.02565 3.20996 0.75 4.48561 0.75 6.05352V16.8475C0.75 18.4154 2.02565 19.6911 3.59356 19.6911H20.4064C21.9743 19.6911 23.25 18.4154 23.25 16.8475V6.05352C23.25 4.48561 21.9743 3.20996 20.4064 3.20996ZM19.9622 5.0442L12 11.1949L4.03781 5.0442H19.9622ZM20.4064 17.857H3.59356C3.03705 17.857 2.58424 17.4042 2.58424 16.8477V6.23915L11.4393 13.0796C11.6044 13.2072 11.8023 13.2709 12 13.2709C12.1977 13.2709 12.3956 13.2072 12.5607 13.0796L21.4158 6.23915V16.8475C21.4158 17.4042 20.9629 17.857 20.4064 17.857Z" fill="#64797B"/>
</svg>
