<?xml version="1.0" encoding="utf-8"?>
<!-- Generator: Adobe Illustrator 25.2.3, SVG Export Plug-In . SVG Version: 6.00 Build 0)  -->
<svg version="1.1" id="Layer_1" xmlns="http://www.w3.org/2000/svg" xmlns:xlink="http://www.w3.org/1999/xlink" x="0px" y="0px"
	 viewBox="0 0 24 24" style="enable-background:new 0 0 24 24;" xml:space="preserve">
<style type="text/css">
	.st0{fill:#64797B;}
</style>
<path class="st0" d="M15.4,11.2c1.4-1,2.4-2.7,2.4-4.7c0-3.2-2.6-5.8-5.8-5.8c-3.2,0-5.8,2.6-5.8,5.8c0,1.9,0.9,3.6,2.4,4.7
	C5,12.6,2.5,16,2.5,20.1c0,1.7,1.4,3.2,3.2,3.2h12.7c1.7,0,3.2-1.4,3.2-3.2C21.5,16,19,12.6,15.4,11.2z M8,6.5c0-2.2,1.8-4,4-4
	c2.2,0,4,1.8,4,4s-1.8,4-4,4C9.8,10.6,8,8.7,8,6.5z M18.3,21.5H5.7c-0.8,0-1.4-0.6-1.4-1.4c0-4.3,3.5-7.8,7.8-7.8
	c4.3,0,7.8,3.5,7.8,7.8C19.8,20.9,19.1,21.5,18.3,21.5z"/>
</svg>
