<svg width="24" height="24" viewBox="0 0 24 24" fill="none" xmlns="http://www.w3.org/2000/svg">
<path d="M23.853 11.845C22.4765 9.86708 20.8257 8.09502 18.9501 6.58211L20.3215 5.21924C20.4829 5.05783 20.5736 4.83892 20.5736 4.61066C20.5736 4.3824 20.4829 4.16349 20.3215 4.00208C20.1601 3.84068 19.9412 3.75 19.7129 3.75C19.4847 3.75 19.2658 3.84068 19.1044 4.00208L17.5443 5.57067C15.9052 4.4518 13.982 3.82162 11.9986 3.75351C5.61277 3.75351 0.36699 11.5107 0.14413 11.845C0.0501527 11.9859 0 12.1514 0 12.3208C0 12.4901 0.0501527 12.6556 0.14413 12.7965C1.52057 14.7744 3.17142 16.5465 5.04705 18.0594L3.6756 19.4223C3.5142 19.5837 3.42352 19.8026 3.42352 20.0308C3.42352 20.2591 3.5142 20.478 3.6756 20.6394C3.83701 20.8008 4.05592 20.8915 4.28418 20.8915C4.51244 20.8915 4.73135 20.8008 4.89276 20.6394L6.45278 19.0708C8.09097 20.1927 10.0143 20.8259 11.9986 20.8966C18.3844 20.8966 23.6301 13.1308 23.853 12.805C23.9488 12.6633 24 12.4961 24 12.325C24 12.1539 23.9488 11.9868 23.853 11.845ZM1.90987 12.325C3.11845 10.6964 7.36136 5.46781 11.9986 5.46781C13.5222 5.52242 15.0029 5.98735 16.2843 6.81354L14.9643 8.13356C13.9743 7.44083 12.772 7.1188 11.5683 7.22395C10.3646 7.3291 9.23633 7.85471 8.38142 8.70859C7.52652 9.56247 6.99956 10.6901 6.89297 11.8937C6.78638 13.0973 7.10697 14.3 7.79851 15.2908L6.25563 16.8422C4.61613 15.5326 3.15513 14.014 1.90987 12.325ZM15.4272 12.325C15.4236 12.9251 15.2625 13.5138 14.9601 14.0321C14.6577 14.5505 14.2246 14.9804 13.704 15.2788C13.1834 15.5773 12.5935 15.7339 11.9934 15.733C11.3933 15.7321 10.804 15.5737 10.2843 15.2736L14.9386 10.6107C15.2498 11.1291 15.4183 11.7205 15.4272 12.325ZM8.56995 12.325C8.57505 11.7257 8.73718 11.1381 9.04018 10.621C9.34319 10.1038 9.77647 9.6751 10.2968 9.37763C10.8172 9.08016 11.4064 8.9243 12.0058 8.92559C12.6052 8.92688 13.1938 9.08529 13.7129 9.385L9.05853 14.0393C8.74737 13.521 8.57881 12.9296 8.56995 12.325ZM11.9986 19.1823C10.4749 19.1277 8.9942 18.6627 7.71279 17.8365L9.03281 16.5165C10.0228 17.2092 11.2251 17.5313 12.4288 17.4261C13.6325 17.321 14.7608 16.7954 15.6157 15.9415C16.4706 15.0876 16.9976 13.96 17.1042 12.7564C17.2107 11.5528 16.8902 10.3501 16.1986 9.35929L17.7415 7.80784C19.3788 9.11986 20.8395 10.6382 22.0873 12.325C20.8787 13.9451 16.6358 19.1823 11.9986 19.1823Z" fill="#64797B"/>
</svg>
