<?xml version="1.0" encoding="utf-8"?>
<!-- Generator: Adobe Illustrator 25.2.3, SVG Export Plug-In . SVG Version: 6.00 Build 0)  -->
<svg version="1.1" id="Layer_1" xmlns="http://www.w3.org/2000/svg" xmlns:xlink="http://www.w3.org/1999/xlink" x="0px" y="0px"
	 viewBox="0 0 24 24" style="enable-background:new 0 0 24 24;" xml:space="preserve">
<style type="text/css">
	.st0{fill:#64797B;}
</style>
<path class="st0" d="M12,8.9c1.9,0,3.5,1.5,3.5,3.5s-1.5,3.5-3.5,3.5s-3.5-1.5-3.5-3.5S10.1,8.9,12,8.9 M12,7.2
	c-2.8,0-5.1,2.3-5.1,5.1s2.3,5.1,5.1,5.1s5.1-2.3,5.1-5.1S14.8,7.2,12,7.2L12,7.2z"/>
<path class="st0" d="M23.9,11.8c-1.4-2-3-3.7-4.9-5.3l-1.4-1C15.9,4.5,14,3.8,12,3.8c-6.4,0-11.6,7.8-11.9,8.1C0.1,12,0,12.2,0,12.3
	c0,0.2,0.1,0.3,0.1,0.5c1.4,2,3,3.8,4.9,5.3l1.4,1c1.6,1.1,3.6,1.8,5.5,1.8c6.4,0,11.6-7.8,11.9-8.1c0.1-0.1,0.1-0.3,0.1-0.5
	C24,12.2,23.9,12,23.9,11.8z M12,19.2c-1.5-0.1-3-0.5-4.2-1.3c0,0-0.3-0.1-0.7-0.4c-0.3-0.2-0.8-0.6-0.8-0.6l0,0c0,0,0,0,0,0l0,0
	l0,0c-1.6-1.3-3.1-2.8-4.3-4.5C3.1,10.7,7.4,5.5,12,5.5c1.5,0.1,3,0.5,4.3,1.3c0,0,0.5,0.3,0.8,0.5c0.4,0.3,0.6,0.5,0.6,0.5
	c1.6,1.3,3.1,2.8,4.3,4.5C20.9,13.9,16.6,19.2,12,19.2z"/>
</svg>
