<svg width="32" height="32" viewBox="0 0 32 32" fill="none" xmlns="http://www.w3.org/2000/svg">
<g clip-path="url(#clip0_571_3935)">
<path fill-rule="evenodd" clip-rule="evenodd" d="M24 32H8C5.8783 31.9999 3.84352 31.157 2.34325 29.6568C0.842977 28.1565 9.28184e-05 26.1217 0 24L0 8C9.28184e-05 5.8783 0.842977 3.84352 2.34325 2.34325C3.84352 0.842977 5.8783 9.28184e-05 8 0L24 0C26.1217 0 28.1566 0.842855 29.6569 2.34315C31.1571 3.84344 32 5.87827 32 8V24C32 26.1217 31.1571 28.1566 29.6569 29.6569C28.1566 31.1571 26.1217 32 24 32Z" fill="#199BDF"/>
<path fill-rule="evenodd" clip-rule="evenodd" d="M15 9H24C25.1536 8.99993 26.2632 8.55683 27.0995 7.7622C27.9359 6.96758 28.4351 5.88213 28.4941 4.73C28.5532 3.57788 28.1675 2.44708 27.4168 1.57113C26.666 0.695185 25.6076 0.140991 24.46 0.023C24.307 0.0145 24.1555 0 24 0H8C5.8783 9.28184e-05 3.84352 0.842977 2.34325 2.34325C0.842977 3.84352 9.28184e-05 5.8783 0 8L0 24C9.28219e-05 20.0218 1.58048 16.2065 4.3935 13.3935C7.20653 10.5805 11.0218 9.00009 15 9" fill="#32B4FF"/>
<path fill-rule="evenodd" clip-rule="evenodd" d="M24 16C22.4177 16 20.871 16.4692 19.5554 17.3482C18.2398 18.2273 17.2145 19.4767 16.609 20.9385C16.0035 22.4003 15.845 24.0089 16.1537 25.5607C16.4624 27.1126 17.2243 28.538 18.3431 29.6569C19.462 30.7757 20.8874 31.5376 22.4393 31.8463C23.9911 32.155 25.5997 31.9965 27.0615 31.391C28.5233 30.7855 29.7727 29.7602 30.6517 28.4446C31.5308 27.129 32 25.5823 32 24V8C32 10.1217 31.1571 12.1566 29.6568 13.6569C28.1566 15.1571 26.1217 16 24 16Z" fill="#0082BE"/>
<path fill-rule="evenodd" clip-rule="evenodd" d="M22.5398 8.51599C22.7856 8.41451 23.0539 8.38019 23.3174 8.41656C23.5808 8.45293 23.8298 8.55867 24.0389 8.72295C24.248 8.88723 24.4097 9.10415 24.5074 9.35148C24.605 9.59881 24.6352 9.86766 24.5948 10.1305C24.0121 13.92 22.9438 20.864 22.3767 24.55C22.3374 24.8051 22.2331 25.0457 22.0736 25.2486C21.9142 25.4515 21.7051 25.6099 21.4666 25.7084C21.228 25.8069 20.9681 25.8421 20.712 25.8108C20.4558 25.7795 20.2121 25.6826 20.0043 25.5295C17.9982 24.0515 14.9905 21.8355 13.4635 20.71C13.3456 20.6231 13.2483 20.5115 13.1783 20.3829C13.1084 20.2543 13.0675 20.1119 13.0586 19.9658C13.0497 19.8197 13.073 19.6734 13.1268 19.5373C13.1806 19.4012 13.2637 19.2785 13.3701 19.178C14.7693 17.8565 17.5562 15.2245 19.4737 13.4135C19.5188 13.3706 19.5464 13.3123 19.5508 13.2502C19.5553 13.188 19.5364 13.1265 19.4978 13.0775C19.4592 13.0286 19.4038 12.9958 19.3423 12.9856C19.2808 12.9755 19.2178 12.9886 19.1655 13.0225C16.7069 14.626 12.9416 17.0815 11.0962 18.285C10.7504 18.5105 10.3617 18.6623 9.95451 18.7307C9.54732 18.7991 9.13039 18.7827 8.72983 18.6825C7.71368 18.4285 6.24798 18.062 4.94363 17.736C4.73942 17.685 4.55651 17.5708 4.42097 17.4098C4.28542 17.2487 4.20415 17.049 4.18872 16.8391C4.1733 16.6292 4.22451 16.4197 4.33506 16.2406C4.44561 16.0615 4.60987 15.9218 4.80443 15.8415C9.34503 13.966 18.2309 10.296 22.5398 8.51599Z" fill="white"/>
</g>
<defs>
<clipPath id="clip0_571_3935">
<rect width="32" height="32" fill="white"/>
</clipPath>
</defs>
</svg>
