<?xml version="1.0" encoding="utf-8"?>
<!-- Generator: Adobe Illustrator 25.2.3, SVG Export Plug-In . SVG Version: 6.00 Build 0)  -->
<svg version="1.1" id="Layer_1" xmlns="http://www.w3.org/2000/svg" xmlns:xlink="http://www.w3.org/1999/xlink" x="0px" y="0px"
	 viewBox="0 0 32 32" style="enable-background:new 0 0 32 32;" xml:space="preserve">
<style type="text/css">
	.st0{clip-path:url(#SVGID_2_);}
	.st1{fill-rule:evenodd;clip-rule:evenodd;fill:url(#SVGID_3_);}
	.st2{opacity:5.000000e-02;enable-background:new    ;}
	.st3{opacity:7.000000e-02;enable-background:new    ;}
	.st4{fill:#FFFFFF;}
</style>
<g>
	<defs>
		<rect id="SVGID_1_" width="32" height="32"/>
	</defs>
	<clipPath id="SVGID_2_">
		<use xlink:href="#SVGID_1_"  style="overflow:visible;"/>
	</clipPath>
	<g class="st0">
		<linearGradient id="SVGID_3_" gradientUnits="userSpaceOnUse" x1="2.2514" y1="1.965" x2="29.464" y2="29.7445">
			<stop  offset="0" style="stop-color:#33BEF0"/>
			<stop  offset="1" style="stop-color:#0A85D9"/>
		</linearGradient>
		<path class="st1" d="M24,32H8c-1.1,0-2.1-0.2-3.1-0.6s-1.9-1-2.6-1.7C1.6,28.9,1,28,0.6,27.1c-0.4-1-0.6-2-0.6-3.1V8
			c0-1.1,0.2-2.1,0.6-3.1c0.4-1,1-1.9,1.7-2.6S4,1,4.9,0.6C5.9,0.2,6.9,0,8,0h16c1.1,0,2.1,0.2,3.1,0.6c1,0.4,1.9,1,2.6,1.7
			C30.4,3.1,31,4,31.4,4.9S32,6.9,32,8v16c0,1.1-0.2,2.1-0.6,3.1c-0.4,1-1,1.9-1.7,2.6c-0.7,0.7-1.6,1.3-2.6,1.7
			C26.1,31.8,25.1,32,24,32z"/>
	</g>
</g>
<path class="st2" d="M7.2,13.6c5.6-2.5,12.1-5.3,13.2-5.7c2.2-0.9,3.2,0,3,1.4c-0.2,1.8-1.1,6.8-1.6,10.5c-0.3,2.1-1.5,2.8-2.8,2
	c-1-0.6-4.4-2.9-5.3-3.6c-0.6-0.5-1-1.1-0.6-1.7c0.1-0.2,0.5-0.5,0.6-0.7c0.9-0.9,0.8-1.1-0.3-0.3c-0.1,0.1-0.9,0.6-1.2,0.8
	c-0.8,0.5-1.5,0.5-2.6,0.1c-1-0.3-1.9-0.6-2.5-0.8C6.3,15.4,6,14.2,7.2,13.6z"/>
<path class="st3" d="M7.7,13.7c5.2-2.3,11.6-5,12.5-5.4C22.5,7.5,23.3,8,23,9.8c-0.2,1.6-1,6.6-1.6,10c-0.3,2-1.3,2.4-2.5,1.6
	c-0.8-0.5-3.9-2.6-4.7-3.2c-0.6-0.5-1.2-1-0.5-1.8c0.2-0.3,1.6-1.5,2.5-2.5c0.6-0.5,0.4-0.8-0.3-0.3c-1.3,0.9-3.3,2.2-3.7,2.5
	c-0.7,0.5-1.4,0.6-2.5,0.2C8.9,16,8,15.7,7.6,15.5C6.5,15.1,6.5,14.3,7.7,13.7z"/>
<path class="st4" d="M3.3,14.9c7.7-3.4,17.6-7.5,18.9-8c3.6-1.5,4.7-1.2,4.1,2.1C26,11.3,24.8,19.2,23.9,24c-0.5,2.9-1.7,3.2-3.6,2
	c-0.9-0.6-5.5-3.7-6.5-4.4c-0.9-0.7-2.2-1.4-0.6-3c0.6-0.6,4.2-4.1,7.1-6.8c0.4-0.4-0.1-1-0.5-0.7c-3.9,2.6-9.2,6.1-9.9,6.6
	c-1,0.7-2,1-3.8,0.5c-1.3-0.4-2.7-0.8-3.2-1C0.9,16.6,1.4,15.7,3.3,14.9z"/>
</svg>
