<svg width="32" height="32" viewBox="0 0 32 32" fill="none" xmlns="http://www.w3.org/2000/svg">
<g clip-path="url(#clip0_580_4567)">
<path fill-rule="evenodd" clip-rule="evenodd" d="M24 32H8C5.8783 31.9999 3.84352 31.157 2.34325 29.6568C0.842977 28.1565 9.28184e-05 26.1217 0 24L0 8C9.28184e-05 5.8783 0.842977 3.84352 2.34325 2.34325C3.84352 0.842977 5.8783 9.28184e-05 8 0L24 0C26.1217 0 28.1566 0.842855 29.6569 2.34315C31.1571 3.84344 32 5.87827 32 8V24C32 26.1217 31.1571 28.1566 29.6569 29.6569C28.1566 31.1571 26.1217 32 24 32Z" fill="#199BDF"/>
<path fill-rule="evenodd" clip-rule="evenodd" d="M15 9H24C25.1536 8.99993 26.2632 8.55683 27.0995 7.7622C27.9359 6.96758 28.4351 5.88213 28.4941 4.73C28.5532 3.57788 28.1675 2.44708 27.4168 1.57113C26.666 0.695185 25.6076 0.140991 24.46 0.023C24.307 0.0145 24.1555 0 24 0H8C5.8783 9.28184e-05 3.84352 0.842977 2.34325 2.34325C0.842977 3.84352 9.28184e-05 5.8783 0 8L0 24C9.28219e-05 20.0218 1.58048 16.2065 4.3935 13.3935C7.20653 10.5805 11.0218 9.00009 15 9Z" fill="#32B4FF"/>
<path fill-rule="evenodd" clip-rule="evenodd" d="M24 16C22.4177 16 20.871 16.4692 19.5554 17.3482C18.2398 18.2273 17.2145 19.4767 16.609 20.9385C16.0035 22.4003 15.845 24.0089 16.1537 25.5607C16.4624 27.1126 17.2243 28.538 18.3431 29.6569C19.462 30.7757 20.8874 31.5376 22.4393 31.8463C23.9911 32.155 25.5997 31.9965 27.0615 31.391C28.5233 30.7855 29.7727 29.7602 30.6517 28.4446C31.5308 27.129 32 25.5823 32 24V8C32 10.1217 31.1571 12.1566 29.6568 13.6569C28.1566 15.1571 26.1217 16 24 16Z" fill="#0082BE"/>
<path fill-rule="evenodd" clip-rule="evenodd" d="M22.5398 8.51587C22.7856 8.41439 23.0539 8.38007 23.3174 8.41644C23.5808 8.4528 23.8298 8.55854 24.0389 8.72283C24.248 8.88711 24.4097 9.10403 24.5074 9.35136C24.605 9.59869 24.6352 9.86754 24.5948 10.1304C24.0121 13.9199 22.9438 20.8639 22.3767 24.5499C22.3374 24.8049 22.2331 25.0456 22.0736 25.2485C21.9142 25.4514 21.7051 25.6098 21.4666 25.7083C21.228 25.8067 20.9681 25.842 20.712 25.8107C20.4558 25.7793 20.2121 25.6824 20.0043 25.5294C17.9982 24.0514 14.9905 21.8354 13.4635 20.7099C13.3456 20.623 13.2483 20.5114 13.1783 20.3828C13.1084 20.2542 13.0675 20.1118 13.0586 19.9657C13.0497 19.8196 13.073 19.6733 13.1268 19.5372C13.1806 19.401 13.2637 19.2784 13.3701 19.1779C14.7693 17.8564 17.5562 15.2244 19.4737 13.4134C19.5188 13.3704 19.5464 13.3122 19.5508 13.2501C19.5553 13.1879 19.5364 13.1263 19.4978 13.0774C19.4592 13.0285 19.4038 12.9957 19.3423 12.9855C19.2808 12.9753 19.2178 12.9885 19.1655 13.0224C16.7069 14.6259 12.9416 17.0814 11.0962 18.2849C10.7504 18.5104 10.3617 18.6622 9.95451 18.7306C9.54732 18.799 9.13039 18.7825 8.72983 18.6824C7.71368 18.4284 6.24798 18.0619 4.94363 17.7359C4.73942 17.6848 4.55651 17.5707 4.42097 17.4096C4.28542 17.2486 4.20415 17.0489 4.18872 16.839C4.1733 16.629 4.22451 16.4196 4.33506 16.2405C4.44561 16.0614 4.60987 15.9217 4.80443 15.8414C9.34503 13.9659 18.2309 10.2959 22.5398 8.51587Z" fill="white"/>
</g>
<defs>
<clipPath id="clip0_580_4567">
<rect width="32" height="32" fill="white"/>
</clipPath>
</defs>
</svg>
