<svg width="32" height="32" viewBox="0 0 32 32" fill="none" xmlns="http://www.w3.org/2000/svg">
<g clip-path="url(#clip0_321_2470)">
<path fill-rule="evenodd" clip-rule="evenodd" d="M24 32H8C6.94939 32.0001 5.90905 31.7933 4.93839 31.3913C3.96773 30.9893 3.08577 30.4 2.34288 29.6571C1.59999 28.9142 1.01072 28.0323 0.608723 27.0616C0.206727 26.091 -0.000118163 25.0506 5.06411e-08 24V8C-0.000118163 6.94939 0.206727 5.90905 0.608723 4.93839C1.01072 3.96773 1.59999 3.08577 2.34288 2.34288C3.08577 1.59999 3.96773 1.01072 4.93839 0.608723C5.90905 0.206727 6.94939 -0.000118163 8 5.06411e-08H24C25.0506 -0.000118163 26.091 0.206727 27.0616 0.608723C28.0323 1.01072 28.9142 1.59999 29.6571 2.34288C30.4 3.08577 30.9893 3.96773 31.3913 4.93839C31.7933 5.90905 32.0001 6.94939 32 8V24C32.0001 25.0506 31.7933 26.091 31.3913 27.0616C30.9893 28.0323 30.4 28.9142 29.6571 29.6571C28.9142 30.4 28.0323 30.9893 27.0616 31.3913C26.091 31.7933 25.0506 32.0001 24 32Z" fill="#785AFA"/>
<path fill-rule="evenodd" clip-rule="evenodd" d="M15 9H24C25.1536 8.99993 26.2632 8.55683 27.0995 7.7622C27.9359 6.96758 28.4351 5.88213 28.4941 4.73C28.5532 3.57788 28.1675 2.44708 27.4168 1.57113C26.666 0.695185 25.6076 0.140991 24.46 0.0230001C24.305 0.0145 24.155 5.06411e-08 24 5.06411e-08H8C6.94939 -0.000118163 5.90905 0.206727 4.93839 0.608723C3.96773 1.01072 3.08577 1.59999 2.34288 2.34288C1.59999 3.08577 1.01072 3.96773 0.608723 4.93839C0.206727 5.90905 -0.000118163 6.94939 5.06411e-08 8V24C5.06411e-08 20.0218 1.58035 16.2064 4.3934 13.3934C7.20644 10.5804 11.0218 9 15 9Z" fill="#9678FF"/>
<path fill-rule="evenodd" clip-rule="evenodd" d="M24 16C22.4178 16 20.871 16.4692 19.5554 17.3482C18.2399 18.2273 17.2145 19.4767 16.609 20.9385C16.0035 22.4003 15.845 24.0089 16.1537 25.5607C16.4624 27.1126 17.2243 28.538 18.3431 29.6569C19.462 30.7757 20.8874 31.5376 22.4393 31.8463C23.9911 32.155 25.5997 31.9965 27.0615 31.391C28.5233 30.7855 29.7727 29.7602 30.6518 28.4446C31.5308 27.129 32 25.5823 32 24V8C32.0001 9.05061 31.7933 10.0909 31.3913 11.0616C30.9893 12.0323 30.4 12.9142 29.6571 13.6571C28.9142 14.4 28.0323 14.9893 27.0616 15.3913C26.091 15.7933 25.0506 16.0001 24 16Z" fill="#5F41E1"/>
<path d="M25.0001 17.6834C24.4251 22.3219 21.0301 22.6134 20.4051 22.8144C18.4925 23.2815 16.5191 23.4495 14.5551 23.3124C14.5551 23.3124 12.2351 25.6844 11.5151 26.4114C11.4743 26.4593 11.4226 26.4968 11.3643 26.5207C11.306 26.5445 11.2428 26.554 11.1801 26.5484C11.0551 26.5179 11.0201 26.3704 11.0201 26.1544C11.0251 25.8464 11.0401 22.7594 11.0401 22.7594C6.51011 21.5019 6.77511 16.7734 6.82511 14.2969C6.87511 11.8204 7.34011 9.79237 8.72511 8.42837C11.2051 6.17987 16.3201 6.51587 16.3201 6.51587C20.6401 6.53437 22.7101 7.83487 23.1901 8.27087C24.7801 9.63487 25.5951 12.8994 25.0001 17.6824V17.6834ZM24.3801 7.11387C23.8151 6.59087 21.5201 4.92687 16.4151 4.90437C16.4151 4.90437 10.3951 4.54087 7.46011 7.23337C5.82511 8.86737 5.25011 11.2584 5.19011 14.2229C5.13011 17.1874 4.64511 22.7434 10.0001 24.2499V26.5484C10.0001 27.1359 10.1751 27.9999 11.0201 27.9999C11.3651 27.9999 11.8551 27.8679 12.5401 27.1719L14.8151 24.9784C16.8926 25.0879 18.975 24.9017 21.0001 24.4254C21.7401 24.1854 25.9251 23.6494 26.6051 18.0944C27.3051 12.3684 26.2651 8.74637 24.3801 7.11387Z" fill="white"/>
<path fill-rule="evenodd" clip-rule="evenodd" d="M16.0003 9C16.7227 8.99982 17.4379 9.14195 18.1053 9.41829C18.7727 9.69463 19.3791 10.0997 19.8898 10.6105C20.4006 11.1213 20.8057 11.7277 21.0821 12.395C21.3584 13.0624 21.5005 13.7777 21.5004 14.5C21.4992 14.6321 21.4473 14.7586 21.3554 14.8535C21.2853 14.9234 21.1961 14.9711 21.0991 14.9904C21.002 15.0097 20.9014 14.9998 20.8099 14.962C20.7185 14.9242 20.6403 14.8601 20.5852 14.7779C20.5301 14.6957 20.5006 14.599 20.5004 14.5C20.4995 13.3068 20.0251 12.1627 19.1813 11.319C18.3376 10.4753 17.1935 10.0009 16.0003 10H15.9553C15.8228 9.99979 15.6957 9.94704 15.602 9.85332C15.5083 9.7596 15.4556 9.63254 15.4553 9.5C15.4548 9.4344 15.4673 9.36934 15.4922 9.30864C15.5171 9.24794 15.5539 9.19281 15.6003 9.1465C15.647 9.09991 15.7023 9.06298 15.7632 9.03784C15.8241 9.0127 15.8894 8.99984 15.9553 9H16.0003Z" fill="white"/>
<path fill-rule="evenodd" clip-rule="evenodd" d="M16.0003 11C16.46 10.9999 16.9151 11.0904 17.3398 11.2663C17.7645 11.4422 18.1503 11.7 18.4754 12.025C18.8004 12.35 19.0582 12.7359 19.2341 13.1605C19.4099 13.5852 19.5004 14.0404 19.5004 14.5C19.5002 14.599 19.4706 14.6957 19.4155 14.7779C19.3605 14.8601 19.2822 14.9242 19.1908 14.962C19.0993 14.9998 18.9987 15.0097 18.9016 14.9904C18.8046 14.9711 18.7154 14.9234 18.6454 14.8535C18.5534 14.7586 18.5015 14.6321 18.5004 14.5C18.5002 13.837 18.2367 13.2012 17.7679 12.7324C17.2991 12.2636 16.6633 12.0002 16.0003 12H15.9553C15.8894 12.0002 15.8241 11.9873 15.7632 11.9622C15.7023 11.937 15.647 11.9001 15.6003 11.8535C15.5539 11.8072 15.5171 11.7521 15.4922 11.6914C15.4673 11.6307 15.4548 11.5656 15.4553 11.5C15.4556 11.3675 15.5083 11.2404 15.602 11.1467C15.6957 11.053 15.8228 11.0002 15.9553 11H16.0003Z" fill="white"/>
<path d="M21.2852 19.4403C21.3779 19.2931 21.4179 19.119 21.3989 18.9462C21.3798 18.7734 21.3027 18.6121 21.1802 18.4888C20.5682 17.949 19.9051 17.4702 19.2002 17.0592C19.0256 16.9504 18.8184 16.9063 18.6146 16.9346C18.4108 16.963 18.2235 17.0619 18.0852 17.2143L17.6802 17.7188C17.1702 18.3488 15.6102 17.4043 14.8702 16.6308C14.0952 15.8863 13.1502 14.3283 13.7802 13.8173L14.2852 13.4167C14.4375 13.278 14.5365 13.0902 14.5648 12.886C14.5931 12.6819 14.549 12.4743 14.4402 12.2993C14.0317 11.5927 13.5526 10.9295 13.0102 10.3197C12.8873 10.197 12.7264 10.1196 12.5538 10.1002C12.3812 10.0809 12.2072 10.1207 12.0602 10.2133C11.6733 10.4411 11.3228 10.7256 11.0202 11.0572C10.8394 11.2273 10.7102 11.4449 10.6475 11.6849C10.5847 11.925 10.5908 12.178 10.6652 12.4148C11.3607 14.3564 12.454 16.1315 13.8752 17.6262C15.3706 19.0454 17.1448 20.1378 19.0852 20.8342C19.3221 20.9095 19.5754 20.9164 19.816 20.854C20.0566 20.7917 20.2747 20.6626 20.4452 20.4818C20.7619 20.1659 21.0436 19.8167 21.2852 19.4403Z" fill="white"/>
</g>
<defs>
<clipPath id="clip0_321_2470">
<rect width="32" height="32" fill="white"/>
</clipPath>
</defs>
</svg>
