<svg width="32" height="32" viewBox="0 0 32 32" fill="none" xmlns="http://www.w3.org/2000/svg">
<g clip-path="url(#clip0_321_2436)">
<path fill-rule="evenodd" clip-rule="evenodd" d="M24 32H8C5.8783 31.9999 3.84352 31.157 2.34325 29.6568C0.842977 28.1565 9.28184e-05 26.1217 0 24L0 8C9.28184e-05 5.8783 0.842977 3.84352 2.34325 2.34325C3.84352 0.842977 5.8783 9.28184e-05 8 0L24 0C26.1217 0 28.1566 0.842855 29.6569 2.34315C31.1571 3.84344 32 5.87827 32 8V24C32 26.1217 31.1571 28.1566 29.6569 29.6569C28.1566 31.1571 26.1217 32 24 32Z" fill="#00D264"/>
<path fill-rule="evenodd" clip-rule="evenodd" d="M15 9H24C25.1536 8.99993 26.2632 8.55683 27.0995 7.7622C27.9359 6.96758 28.4351 5.88213 28.4941 4.73C28.5532 3.57788 28.1675 2.44708 27.4168 1.57113C26.666 0.695185 25.6076 0.140991 24.46 0.023C24.307 0.0145 24.1555 0 24 0H8C5.8783 9.28184e-05 3.84352 0.842977 2.34325 2.34325C0.842977 3.84352 9.28184e-05 5.8783 0 8L0 24C9.28219e-05 20.0218 1.58048 16.2065 4.3935 13.3935C7.20653 10.5805 11.0218 9.00009 15 9Z" fill="#00EB78"/>
<path fill-rule="evenodd" clip-rule="evenodd" d="M24 16C22.4178 16 20.871 16.4692 19.5554 17.3482C18.2399 18.2273 17.2145 19.4767 16.609 20.9385C16.0035 22.4003 15.845 24.0089 16.1537 25.5607C16.4624 27.1126 17.2243 28.538 18.3431 29.6569C19.462 30.7757 20.8874 31.5376 22.4393 31.8463C23.9911 32.155 25.5997 31.9965 27.0615 31.391C28.5233 30.7855 29.7727 29.7602 30.6518 28.4446C31.5308 27.129 32 25.5823 32 24V8C32 10.1217 31.1572 12.1566 29.6569 13.6569C28.1566 15.1571 26.1217 16 24 16Z" fill="#00B950"/>
<path fill-rule="evenodd" clip-rule="evenodd" d="M10.8365 23.5465C10.9696 23.5087 11.1091 23.4988 11.2462 23.5176C11.3833 23.5364 11.515 23.5833 11.633 23.6555C13.6211 24.84 15.9733 25.2572 18.2475 24.8288C20.5216 24.4004 22.5608 23.1559 23.9816 21.3293C25.4024 19.5027 26.1069 17.22 25.9625 14.9104C25.8182 12.6007 24.835 10.4235 23.1978 8.788C21.5606 7.15255 19.3822 6.17163 17.0725 6.02973C14.7627 5.88783 12.4807 6.59474 10.6556 8.01749C8.83055 9.44025 7.58819 11.4808 7.16221 13.7554C6.73623 16.0299 7.15599 18.3818 8.34253 20.3685C8.41448 20.4862 8.46123 20.6175 8.47982 20.7542C8.49841 20.8909 8.48843 21.0299 8.45053 21.1625C8.17203 22.148 7.50003 24.5 7.50003 24.5C7.50003 24.5 9.85203 23.828 10.8365 23.5465ZM6.60953 21.367C5.17999 18.9573 4.67933 16.1085 5.20156 13.3557C5.72378 10.603 7.23298 8.13549 9.44574 6.41669C11.6585 4.6979 14.4226 3.84601 17.219 4.021C20.0155 4.19599 22.6518 5.38581 24.633 7.36704C26.6143 9.34827 27.8041 11.9846 27.9791 14.781C28.1541 17.5775 27.3022 20.3416 25.5834 22.5543C23.8646 24.7671 21.3971 26.2763 18.6443 26.7985C15.8915 27.3207 13.0428 26.8201 10.633 25.3905C10.633 25.3905 7.44453 26.3015 5.86553 26.753C5.77975 26.7775 5.68901 26.7785 5.60269 26.7561C5.51636 26.7337 5.4376 26.6886 5.37454 26.6255C5.31147 26.5625 5.2664 26.4837 5.24399 26.3974C5.22157 26.3111 5.22262 26.2203 5.24703 26.1345C5.69853 24.5555 6.60953 21.367 6.60953 21.367Z" fill="white"/>
<path fill-rule="evenodd" clip-rule="evenodd" d="M10.9905 12.393C11.146 14.6319 12.1016 16.7402 13.6826 18.333C15.2637 19.9258 17.3648 20.8969 19.6025 21.069H19.6035C19.9607 21.0967 20.3198 21.0466 20.6559 20.9223C20.9919 20.7981 21.2971 20.6025 21.5505 20.349L21.8995 20C22.0642 19.8351 22.1568 19.6116 22.157 19.3785V18.6375C22.1569 18.5446 22.1311 18.4536 22.0822 18.3745C22.0334 18.2955 21.9635 18.2316 21.8805 18.19C21.354 17.927 20.211 17.3555 19.651 17.0755C19.5571 17.0286 19.4508 17.0123 19.3471 17.0291C19.2435 17.0459 19.1478 17.0948 19.0735 17.169C18.7945 17.448 18.3535 17.8895 18.1035 18.139C18.0453 18.1972 17.9736 18.2402 17.8949 18.2641C17.8161 18.288 17.7327 18.2921 17.652 18.276L17.6475 18.275C16.6795 18.0814 15.7904 17.6056 15.0924 16.9076C14.3944 16.2095 13.9186 15.3205 13.725 14.3525L13.724 14.348C13.7079 14.2673 13.712 14.1839 13.7359 14.1051C13.7598 14.0264 13.8028 13.9547 13.861 13.8965C14.1105 13.6465 14.552 13.2055 14.831 12.9265C14.9052 12.8522 14.9541 12.7565 14.9709 12.6529C14.9877 12.5492 14.9714 12.4429 14.9245 12.349C14.6445 11.789 14.073 10.646 13.81 10.1195C13.7684 10.0364 13.7045 9.96658 13.6255 9.91774C13.5464 9.86891 13.4554 9.84304 13.3625 9.84302H12.7325C12.5829 9.84306 12.435 9.87451 12.2983 9.93531C12.1616 9.99612 12.0392 10.0849 11.939 10.196C11.8385 10.308 11.723 10.436 11.607 10.565C11.3887 10.8073 11.2213 11.091 11.115 11.3993C11.0087 11.7076 10.9655 12.0342 10.988 12.3595C10.989 12.3705 10.9895 12.3815 10.9905 12.393Z" fill="white"/>
</g>
<defs>
<clipPath id="clip0_321_2436">
<rect width="32" height="32" fill="white"/>
</clipPath>
</defs>
</svg>
