<?xml version="1.0" encoding="utf-8"?>
<!-- Generator: Adobe Illustrator 25.2.3, SVG Export Plug-In . SVG Version: 6.00 Build 0)  -->
<svg version="1.1" id="Layer_1" xmlns="http://www.w3.org/2000/svg" xmlns:xlink="http://www.w3.org/1999/xlink" x="0px" y="0px"
	 viewBox="0 0 86 82" style="enable-background:new 0 0 86 82;" xml:space="preserve">
<style type="text/css">
	.st0{fill:#FFFFFF;}
</style>
<path class="st0" d="M56.3,65h-3.2c-2.6,3.9-7,6.5-12.1,6.5s-9.5-2.6-12.1-6.5h-3.2h-3c3.1,7.1,10.1,12,18.3,12
	c8.2,0,15.2-4.9,18.3-12H56.3z"/>
<path class="st0" d="M12.3,10.8c-1.7,0-3,0.4-3.8,1.1c-0.9,0.7-1.3,1.8-1.3,3.3v1.3h8.6v3.9H7.2V28H2.3V15.2c0-2.7,0.8-4.8,2.5-6.3
	c1.7-1.5,4.1-2.3,7.1-2.3c1.2,0,2.3,0.1,3.4,0.4c1.1,0.2,2,0.6,2.8,1.1l-1.5,3.8C15.4,11.2,13.9,10.8,12.3,10.8z M37,11.9V28h-4.5
	v-1.9c-1.2,1.4-2.8,2.1-5,2.1c-1.5,0-2.9-0.3-4.1-1c-1.2-0.7-2.2-1.6-2.9-2.9c-0.7-1.3-1-2.7-1-4.4s0.4-3.1,1-4.4
	c0.7-1.3,1.7-2.2,2.9-2.9c1.2-0.7,2.6-1,4.1-1c2.1,0,3.7,0.7,4.8,1.9v-1.7H37z M28.3,24.4c1.2,0,2.2-0.4,2.9-1.2
	c0.8-0.8,1.2-1.9,1.2-3.3s-0.4-2.4-1.2-3.2c-0.8-0.8-1.8-1.2-2.9-1.2c-1.2,0-2.2,0.4-3,1.2c-0.8,0.8-1.2,1.9-1.2,3.2
	s0.4,2.4,1.2,3.3C26.1,24,27.1,24.4,28.3,24.4z M46.7,14c0.6-0.8,1.3-1.4,2.2-1.8c1-0.4,2.1-0.6,3.3-0.6v4.3c-0.5,0-0.9-0.1-1-0.1
	c-1.3,0-2.4,0.4-3.2,1.1c-0.8,0.7-1.1,1.9-1.1,3.4V28h-4.7V11.9h4.5V14z M76.6,11.6c2,0,3.6,0.6,4.8,1.8c1.2,1.2,1.8,3,1.8,5.3V28
	h-4.7v-8.5c0-1.3-0.3-2.2-0.8-2.9c-0.5-0.6-1.3-1-2.2-1c-1.1,0-2,0.4-2.6,1.1c-0.6,0.7-1,1.8-1,3.1V28h-4.7v-8.5
	c0-2.5-1-3.8-3.1-3.8c-1.1,0-1.9,0.4-2.6,1.1c-0.6,0.7-1,1.8-1,3.1V28h-4.7V11.9h4.5v1.9c0.6-0.7,1.3-1.2,2.2-1.6
	c0.9-0.4,1.8-0.5,2.9-0.5c1.1,0,2.2,0.2,3.1,0.7c0.9,0.4,1.7,1.1,2.2,1.9c0.7-0.8,1.5-1.5,2.5-1.9C74.3,11.9,75.4,11.6,76.6,11.6z
	 M12.3,42.8c-1.7,0-3,0.4-3.8,1.1c-0.9,0.7-1.3,1.8-1.3,3.3v1.3h8.6v3.9H7.2V60H2.3V47.2c0-2.7,0.8-4.8,2.5-6.3
	c1.7-1.5,4.1-2.2,7.1-2.2c1.2,0,2.3,0.1,3.4,0.4c1.1,0.2,2,0.6,2.8,1.1L16.6,44C15.4,43.2,13.9,42.8,12.3,42.8z M29.9,60.2
	c-1.7,0-3.2-0.4-4.6-1.1c-1.3-0.7-2.4-1.7-3.1-3C21.4,55,21,53.5,21,51.9s0.4-3,1.1-4.3c0.8-1.3,1.8-2.2,3.1-2.9
	c1.4-0.7,2.9-1.1,4.6-1.1c1.7,0,3.2,0.4,4.6,1.1c1.3,0.7,2.4,1.7,3.1,2.9c0.8,1.3,1.1,2.7,1.1,4.3s-0.4,3-1.1,4.3
	c-0.8,1.3-1.8,2.2-3.1,3C33.1,59.9,31.6,60.2,29.9,60.2z M29.9,56.4c1.2,0,2.2-0.4,2.9-1.2c0.8-0.8,1.2-1.9,1.2-3.3
	s-0.4-2.4-1.2-3.2c-0.8-0.8-1.7-1.2-2.9-1.2c-1.2,0-2.2,0.4-3,1.2c-0.8,0.8-1.2,1.9-1.2,3.2s0.4,2.5,1.2,3.3
	C27.7,56,28.7,56.4,29.9,56.4z M52,60.2c-1.7,0-3.2-0.4-4.6-1.1c-1.3-0.7-2.4-1.7-3.2-3c-0.8-1.3-1.1-2.7-1.1-4.3s0.4-3,1.1-4.3
	c0.8-1.3,1.8-2.2,3.2-2.9c1.4-0.7,2.9-1.1,4.6-1.1s3.2,0.4,4.6,1.1c1.3,0.7,2.4,1.7,3.1,2.9c0.8,1.3,1.1,2.7,1.1,4.3s-0.4,3-1.1,4.3
	c-0.8,1.3-1.8,2.2-3.1,3C55.2,59.9,53.7,60.2,52,60.2z M52,56.4c1.2,0,2.2-0.4,2.9-1.2c0.8-0.8,1.2-1.9,1.2-3.3s-0.4-2.4-1.2-3.2
	c-0.8-0.8-1.7-1.2-2.9-1.2s-2.2,0.4-3,1.2c-0.8,0.8-1.2,1.9-1.2,3.2s0.4,2.5,1.2,3.3C49.8,56,50.8,56.4,52,56.4z M82.9,37.7V60h-4.5
	v-1.9c-1.2,1.4-2.8,2.1-5,2.1c-1.5,0-2.9-0.3-4.1-1c-1.2-0.7-2.2-1.7-2.9-2.9c-0.7-1.3-1-2.7-1-4.4s0.3-3.1,1-4.4
	c0.7-1.3,1.7-2.2,2.9-2.9c1.2-0.7,2.6-1,4.1-1c2.1,0,3.7,0.7,4.8,2v-7.8H82.9z M74.2,56.4c1.2,0,2.2-0.4,2.9-1.2
	c0.8-0.8,1.2-1.9,1.2-3.3s-0.4-2.4-1.2-3.2c-0.8-0.8-1.8-1.2-2.9-1.2c-1.2,0-2.2,0.4-3,1.2c-0.8,0.8-1.2,1.9-1.2,3.2
	s0.4,2.5,1.2,3.3C72,56,73,56.4,74.2,56.4z"/>
</svg>
