<svg width="28" height="32" viewBox="0 0 28 32" fill="none" xmlns="http://www.w3.org/2000/svg">
<g filter="url(#filter0_d_448_879)">
<path d="M20.7818 4.26196C19.0095 2.48204 16.6483 1.50177 14.1333 1.50177H14.1224C9.05779 1.39811 4.61457 5.85834 4.71884 10.9211C4.85141 14.496 8.99368 19.0361 11.6719 22.5241C12.4584 23.4637 12.9013 24 14.1325 24C15.4068 24 15.8869 23.4258 16.6754 22.4246C18.6623 19.9556 23.6555 14.0173 23.526 10.921C23.5261 8.40414 22.5515 6.03925 20.7818 4.26196ZM15.2947 21.337C14.3864 22.535 13.8821 22.5372 12.9735 21.339C9.34201 16.7149 6.47644 12.8639 6.47644 10.9211C6.47644 6.69645 9.9064 3.25951 14.1224 3.25951H14.1333C18.3433 3.25951 21.7684 6.6965 21.7684 10.9211C21.7684 12.885 18.9619 16.6815 15.2947 21.337ZM14.1718 14.6404C12.1123 14.6404 10.4367 12.9648 10.4367 10.9053C10.6419 5.95018 17.7025 5.95163 17.9069 10.9053C17.9069 12.9649 16.2313 14.6404 14.1718 14.6404ZM14.1718 8.92789C13.0815 8.92789 12.1944 9.81495 12.1944 10.9053C12.303 13.5286 16.041 13.5278 16.1492 10.9053C16.1492 9.81495 15.2622 8.92789 14.1718 8.92789Z" fill="white"/>
</g>
<defs>
<filter id="filter0_d_448_879" x="-2" y="0" width="32" height="32" filterUnits="userSpaceOnUse" color-interpolation-filters="sRGB">
<feFlood flood-opacity="0" result="BackgroundImageFix"/>
<feColorMatrix in="SourceAlpha" type="matrix" values="0 0 0 0 0 0 0 0 0 0 0 0 0 0 0 0 0 0 127 0" result="hardAlpha"/>
<feOffset dy="4"/>
<feGaussianBlur stdDeviation="2"/>
<feComposite in2="hardAlpha" operator="out"/>
<feColorMatrix type="matrix" values="0 0 0 0 0 0 0 0 0 0 0 0 0 0 0 0 0 0 0.25 0"/>
<feBlend mode="normal" in2="BackgroundImageFix" result="effect1_dropShadow_448_879"/>
<feBlend mode="normal" in="SourceGraphic" in2="effect1_dropShadow_448_879" result="shape"/>
</filter>
</defs>
</svg>
