<svg width="24" height="24" viewBox="0 0 24 24" fill="none" xmlns="http://www.w3.org/2000/svg">
<path d="M14.7574 11.1828C16.1971 10.1329 17.1346 8.43357 17.1346 6.51923C17.1346 3.33807 14.5466 0.75 11.3654 0.75C8.18425 0.75 5.59618 3.33807 5.59618 6.51923C5.59618 8.43357 6.53366 10.1329 7.9734 11.1828C4.39449 12.5524 1.84619 16.0224 1.84619 20.0769C1.84619 21.8266 3.26962 23.25 5.01926 23.25H17.7115C19.4612 23.25 20.8846 21.8266 20.8846 20.0769C20.8846 16.0224 18.3363 12.5524 14.7574 11.1828ZM7.32696 6.51923C7.32696 4.29243 9.13861 2.48079 11.3654 2.48079C13.5922 2.48079 15.4038 4.29243 15.4038 6.51923C15.4038 8.74603 13.5922 10.5577 11.3654 10.5577C9.13861 10.5577 7.32696 8.74603 7.32696 6.51923ZM17.7115 21.5192H5.01926C4.22398 21.5192 3.57698 20.8722 3.57698 20.0769C3.57698 15.7823 7.07081 12.2884 11.3654 12.2884C15.6601 12.2884 19.1539 15.7822 19.1539 20.0769C19.1539 20.8722 18.5069 21.5192 17.7115 21.5192Z" fill="white"/>
</svg>
