<svg width="24" height="24" viewBox="0 0 24 24" fill="none" xmlns="http://www.w3.org/2000/svg">
<path d="M11.9928 0.75C7.68036 0.75 4.17188 4.25848 4.17188 8.57089C4.17188 13.9911 12.0005 23.25 12.0005 23.25C12.0005 23.25 19.8137 13.7246 19.8137 8.57089C19.8137 4.25848 16.3053 0.75 11.9928 0.75ZM14.3525 10.8609C13.7018 11.5114 12.8474 11.8367 11.9928 11.8367C11.1383 11.8367 10.2836 11.5114 9.63318 10.8609C8.33199 9.5598 8.33199 7.44273 9.63318 6.14154C10.2632 5.5112 11.1014 5.16403 11.9928 5.16403C12.8842 5.16403 13.7222 5.51134 14.3525 6.14154C15.6537 7.44273 15.6537 9.5598 14.3525 10.8609Z" fill="white"/>
</svg>
