<svg width="21" height="19" viewBox="0 0 21 19" fill="none" xmlns="http://www.w3.org/2000/svg">
<path d="M2.56309 10.5652C1.51865 9.51155 0.932129 8.0874 0.932129 6.60256C0.932129 5.10948 1.52482 3.67711 2.58058 2.62136C3.63633 1.56561 5.0687 0.9729 6.56178 0.9729C8.05486 0.9729 9.48723 1.56561 10.543 2.62136L10.9278 3.00621L11.3127 2.62136C12.3684 1.56561 13.7998 0.9729 15.2928 0.9729C16.787 0.9729 18.2183 1.56561 19.2741 2.62136C20.3298 3.67711 20.9235 5.10948 20.9235 6.60256C20.9235 8.0874 20.337 9.51155 19.2915 10.5652L11.6543 18.6522C11.466 18.8518 11.2026 18.965 10.9278 18.965C10.6531 18.965 10.3897 18.8518 10.2014 18.6522L2.56309 10.5652ZM10.9278 16.5098L17.8406 9.19049L17.8612 9.16991C18.5414 8.48872 18.9242 7.5657 18.9242 6.60256C18.9242 5.63941 18.5414 4.7164 17.8612 4.03521C17.18 3.35401 16.256 2.97122 15.2928 2.97122C14.3307 2.97122 13.4067 3.35401 12.7255 4.03521L11.6348 5.12697C11.2437 5.51696 10.6109 5.51696 10.2209 5.12697L9.12913 4.03521C8.44896 3.35401 7.52493 2.97122 6.56178 2.97122C5.59864 2.97122 4.67563 3.35401 3.99443 4.03521C3.31323 4.7164 2.93147 5.63941 2.93147 6.60256C2.93147 7.5657 3.31323 8.48872 3.99443 9.16991C4.00163 9.17712 4.00781 9.18329 4.01398 9.19049L10.9278 16.5098Z" fill="black"/>
</svg>
