<?xml version="1.0" encoding="utf-8"?>
<!-- Generator: Adobe Illustrator 25.2.3, SVG Export Plug-In . SVG Version: 6.00 Build 0)  -->
<svg version="1.1" id="Layer_1" xmlns="http://www.w3.org/2000/svg" xmlns:xlink="http://www.w3.org/1999/xlink" x="0px" y="0px"
	 viewBox="0 0 48 48" style="enable-background:new 0 0 48 48;" xml:space="preserve">
<path d="M24,2c12.1,0,22,9.9,22,22s-9.9,22-22,22S2,36.1,2,24S11.9,2,24,2 M24,0C10.7,0,0,10.7,0,24s10.7,24,24,24s24-10.7,24-24
	S37.3,0,24,0L24,0z"/>
<path d="M15.6,26.1c-1-1.1-1.6-2.5-1.6-4c0-1.5,0.6-2.9,1.6-4c1.1-1.1,2.5-1.6,4-1.6s2.9,0.6,4,1.6l0.4,0.4l0.4-0.4
	c1.1-1.1,2.5-1.6,4-1.6c1.5,0,2.9,0.6,4,1.6c1.1,1.1,1.6,2.5,1.6,4c0,1.5-0.6,2.9-1.6,4l-7.6,8.1c-0.2,0.2-0.5,0.3-0.7,0.3
	c-0.3,0-0.5-0.1-0.7-0.3L15.6,26.1z M23.9,32l6.9-7.3l0,0c0.7-0.7,1.1-1.6,1.1-2.6c0-1-0.4-1.9-1.1-2.6c-0.7-0.7-1.6-1.1-2.6-1.1
	c-1,0-1.9,0.4-2.6,1.1l-1.1,1.1c-0.4,0.4-1,0.4-1.4,0l-1.1-1.1c-0.7-0.7-1.6-1.1-2.6-1.1c-1,0-1.9,0.4-2.6,1.1s-1.1,1.6-1.1,2.6
	c0,1,0.4,1.9,1.1,2.6c0,0,0,0,0,0L23.9,32z"/>
<path d="M36.7,17.9L13.9,33.2c-0.4,0.3-0.9,0.2-1.1-0.2l0,0c-0.3-0.4-0.2-0.9,0.2-1.1l22.8-15.3c0.4-0.3,0.9-0.2,1.1,0.2v0
	C37.2,17.2,37.1,17.7,36.7,17.9z"/>
</svg>
