<svg width="48" height="48" viewBox="0 0 48 48" fill="none" xmlns="http://www.w3.org/2000/svg">
<circle cx="24" cy="24" r="24" fill="#FFA837"/>
<path d="M15.5631 26.0652C14.5187 25.0115 13.9321 23.5874 13.9321 22.1026C13.9321 20.6095 14.5248 19.1771 15.5806 18.1214C16.6363 17.0656 18.0687 16.4729 19.5618 16.4729C21.0549 16.4729 22.4872 17.0656 23.543 18.1214L23.9278 18.5062L24.3127 18.1214C25.3684 17.0656 26.7998 16.4729 28.2928 16.4729C29.787 16.4729 31.2183 17.0656 32.2741 18.1214C33.3298 19.1771 33.9235 20.6095 33.9235 22.1026C33.9235 23.5874 33.337 25.0115 32.2915 26.0652L24.6543 34.1522C24.466 34.3518 24.2026 34.465 23.9278 34.465C23.6531 34.465 23.3897 34.3518 23.2014 34.1522L15.5631 26.0652ZM23.9278 32.0098L30.8406 24.6905L30.8612 24.6699C31.5414 23.9887 31.9242 23.0657 31.9242 22.1026C31.9242 21.1394 31.5414 20.2164 30.8612 19.5352C30.18 18.854 29.256 18.4712 28.2928 18.4712C27.3307 18.4712 26.4067 18.854 25.7255 19.5352L24.6348 20.627C24.2437 21.017 23.6109 21.017 23.2209 20.627L22.1291 19.5352C21.449 18.854 20.5249 18.4712 19.5618 18.4712C18.5986 18.4712 17.6756 18.854 16.9944 19.5352C16.3132 20.2164 15.9315 21.1394 15.9315 22.1026C15.9315 23.0657 16.3132 23.9887 16.9944 24.6699C17.0016 24.6771 17.0078 24.6833 17.014 24.6905L23.9278 32.0098Z" fill="black"/>
</svg>
