<svg width="24" height="24" viewBox="0 0 24 24" fill="none" xmlns="http://www.w3.org/2000/svg">
<g clip-path="url(#clip0_296_1938)">
<path d="M24 11.43C24 8.44483 21.762 5.95143 18.7941 5.63008L12 4.89453L5.20582 5.63008C2.23802 5.95143 0 8.44483 0 11.43C0 12.6523 0.830806 13.6904 1.96177 13.9736L3.20809 19.1056H20.8779L22.1292 13.9489C23.2133 13.634 24 12.6193 24 11.43ZM4.31369 17.6993L3.39612 13.9209C3.77573 13.7962 4.1238 13.5839 4.41448 13.2932C4.43319 13.2745 4.45156 13.2555 4.46961 13.2364C4.94152 13.7373 5.6107 14.0505 6.35154 14.0505C7.09286 14.0505 7.76241 13.7369 8.23432 13.2355C8.70628 13.7369 9.37583 14.0505 10.1172 14.0505C10.8585 14.0505 11.528 13.7369 11.9999 13.2355C12.4718 13.7369 13.1414 14.0505 13.8827 14.0505C14.624 14.0505 15.2936 13.7369 15.7655 13.2355C16.2374 13.7369 16.907 14.0505 17.6483 14.0505C18.3896 14.0505 19.0592 13.7369 19.5311 13.2355C19.8415 13.5652 20.2375 13.8129 20.683 13.9445L19.7719 17.6993H4.31369ZM21.4882 12.642C21.4635 12.6435 21.4385 12.6443 21.4141 12.6443C20.7636 12.6443 20.2344 12.1151 20.2344 11.4646H18.8281C18.8281 12.1151 18.2989 12.6442 17.6484 12.6442C16.998 12.6442 16.4688 12.1151 16.4688 11.4646H15.0625C15.0625 12.1151 14.5333 12.6442 13.8828 12.6442C13.2324 12.6442 12.7032 12.1151 12.7032 11.4646H11.2969C11.2969 12.1151 10.7677 12.6442 10.1172 12.6442C9.46677 12.6442 8.93758 12.1151 8.93758 11.4646H7.53126C7.53126 12.1151 7.00206 12.6442 6.35164 12.6442C5.70117 12.6442 5.17197 12.1151 5.17197 11.4646H3.76565C3.76565 11.7797 3.64297 12.076 3.42017 12.2988C3.18001 12.539 2.85276 12.6619 2.51192 12.642C1.89192 12.6047 1.40632 12.0723 1.40632 11.43C1.40632 9.16444 3.10482 7.27215 5.35718 7.02829L12 6.3091L18.6428 7.02829C20.8951 7.27215 22.5936 9.16444 22.5936 11.43C22.5937 12.0723 22.108 12.6047 21.4882 12.642Z" fill="#FFA837"/>
<path d="M11.9976 7.62012L11.4011 8.57581C11.144 8.98762 11.144 9.17977 11.144 9.27212C11.144 9.74277 11.5269 10.1257 11.9976 10.1257C12.4682 10.1257 12.8511 9.74277 12.8511 9.27212C12.8511 9.17977 12.8511 8.98767 12.5941 8.57581L11.9976 7.62012Z" fill="#FFA837"/>
<path d="M15.4561 7.89249L14.4619 7.36353L14.4231 8.489C14.4063 8.97437 14.5025 9.14088 14.5487 9.22057C14.7006 9.48383 14.9839 9.64734 15.288 9.64734C15.4376 9.64734 15.5852 9.60773 15.7144 9.53305C15.912 9.41909 16.0533 9.23505 16.1123 9.01473C16.1713 8.7945 16.141 8.56447 16.0271 8.36721C15.9809 8.28715 15.8848 8.12059 15.4561 7.89249Z" fill="#FFA837"/>
<path d="M9.53559 7.36353L8.54142 7.89249C8.11268 8.12059 8.01663 8.28715 7.9705 8.36703C7.8565 8.56447 7.82621 8.7945 7.88523 9.01473C7.9443 9.23501 8.08559 9.41909 8.2827 9.53282C8.41237 9.60778 8.55998 9.64734 8.70957 9.64734H8.70961C9.01347 9.64734 9.2967 9.48393 9.44891 9.22057C9.49509 9.1406 9.59119 8.97418 9.57445 8.489L9.53559 7.36353Z" fill="#FFA837"/>
</g>
<defs>
<clipPath id="clip0_296_1938">
<rect width="24" height="24" fill="white"/>
</clipPath>
</defs>
</svg>
