<svg width="24" height="24" viewBox="0 0 24 24" fill="none" xmlns="http://www.w3.org/2000/svg">
<g clip-path="url(#clip0_296_2168)">
<path d="M5.64362 17.8469H7.05089V19.2545H5.64362V17.8469Z" fill="#FFA837"/>
<path d="M16.9491 17.8469H18.3564V19.2545H16.9491V17.8469Z" fill="#FFA837"/>
<path d="M11.2963 4.72363H12.7036V6.13105H11.2963V4.72363Z" fill="#FFA837"/>
<path d="M21.903 10.9899C23.9132 8.29341 23.4024 5.21835 23.358 4.46861C22.5816 4.42048 20.33 4.01584 17.6594 5.3732C15.3484 0.782887 8.64963 0.785374 6.34048 5.3732C3.67374 4.01673 1.41736 4.42001 0.641904 4.46861C0.597528 5.21291 0.0870625 8.29622 2.09698 10.9899C-2.19361 14.8108 0.534482 22.0728 6.34737 22.0686C8.80607 22.0686 10.9433 20.6652 12 18.6175C13.0567 20.6652 15.1939 22.0686 17.6528 22.0686C23.4668 22.073 26.1927 14.8083 21.903 10.9899ZM22.0179 5.7874C22.025 5.7874 22.0322 5.7874 22.0392 5.78745C22.0414 6.79012 21.8911 8.81607 20.7576 10.1672C20.0054 9.74425 19.1588 9.47002 18.258 9.38455C18.4164 8.50872 18.3815 7.55877 18.1634 6.70794C19.465 5.90861 21.1286 5.7874 22.0179 5.7874ZM12 3.31634C15.1484 3.27562 17.5767 6.36241 16.8159 9.41082C14.7153 9.68829 12.9348 10.9955 12 12.8071C11.0651 10.9955 9.28469 9.68829 7.18405 9.41082C6.42332 6.36213 8.85167 3.27571 12 3.31634ZM1.96071 5.78745C2.86732 5.78712 4.52172 5.90345 5.83663 6.70794C5.6185 7.55877 5.5836 8.50867 5.74196 9.38455C4.84121 9.47002 3.99464 9.7443 3.24231 10.1672C2.1088 8.81597 1.95855 6.78965 1.96071 5.78745ZM6.34728 20.6613C3.61834 20.6613 1.39822 18.4412 1.39822 15.7123C1.64703 9.15569 11.0486 9.15747 11.2964 15.7123C11.2963 18.4412 9.07622 20.6613 6.34728 20.6613ZM17.6527 20.6613C14.9238 20.6613 12.7036 18.4412 12.7036 15.7123C12.9524 9.15569 22.354 9.15747 22.6018 15.7123C22.6018 18.4412 20.3817 20.6613 17.6527 20.6613Z" fill="#FFA837"/>
</g>
<defs>
<clipPath id="clip0_296_2168">
<rect width="24" height="24" fill="white"/>
</clipPath>
</defs>
</svg>
