<svg width="24" height="24" viewBox="0 0 24 24" fill="none" xmlns="http://www.w3.org/2000/svg">
<g clip-path="url(#clip0_296_1928)">
<path d="M23.2424 14.5185C21.9803 13.3831 19.5926 14.1306 17.6699 15.2482C17.056 14.0125 16.3522 13.1972 15.5957 12.837V7.99882L13.1485 3.25574V0.0163574H2.78289V3.23543L0 7.9786V23.9834H14.8953C15.4755 23.9552 16.025 23.7336 16.5203 23.4922C17.1372 23.8219 17.8141 23.9834 18.4882 23.9834C19.6456 23.9834 20.794 23.5087 21.613 22.5983C22.3644 21.763 23.1726 20.2107 23.6242 18.7356C24.2324 16.7486 24.1004 15.2904 23.2424 14.5185ZM16.5235 16.0955C17.152 17.4462 17.4808 18.9419 17.4808 19.7213C17.4808 21.2605 16.2286 22.5128 14.6893 22.5128C13.15 22.5128 11.8977 21.2605 11.8977 19.7213C11.8977 18.9419 12.2266 17.4462 12.8551 16.0955C13.4493 14.8187 14.1521 14.0256 14.6893 14.0256C15.2265 14.0255 15.9293 14.8187 16.5235 16.0955ZM11.8978 14.886V8.86931H14.1948V12.6874C13.3601 12.8984 12.5788 13.6457 11.8978 14.886ZM10.6577 7.46846H1.92345L3.88443 4.12618H11.539L10.6577 7.46846ZM10.4969 8.86931V19.7264H1.40085V8.86931H10.4969ZM13.7457 7.46846H12.1064L12.6609 5.36577L13.7457 7.46846ZM4.18369 1.41721H11.7477V2.72533H4.18369V1.41721ZM1.40085 22.5241V21.1272H10.4969V22.5241H1.40085ZM22.2847 18.3255C21.8486 19.75 21.0928 21.0819 20.5715 21.6614C19.8676 22.4439 18.7986 22.7428 17.823 22.503C18.4812 21.7623 18.8817 20.7877 18.8817 19.7213C18.8817 18.8672 18.6288 17.6831 18.2217 16.5498C19.9745 15.4973 21.7413 15.0525 22.3055 15.5599C22.7049 15.9193 22.6969 16.979 22.2847 18.3255Z" fill="#FFA837"/>
</g>
<defs>
<clipPath id="clip0_296_1928">
<rect width="24" height="24" fill="white"/>
</clipPath>
</defs>
</svg>
