<svg width="24" height="24" viewBox="0 0 24 24" fill="none" xmlns="http://www.w3.org/2000/svg">
<g clip-path="url(#clip0_296_1875)">
<path d="M19.0274 8.51439C16.9925 6.26695 15.7832 4.28854 15.127 3.02456C14.4163 1.65549 14.1834 0.80654 14.1817 0.799784L13.9701 0L13.2146 0.337001C13.1263 0.376364 11.0388 1.32834 9.86909 3.66764C9.28193 4.84201 9.1645 6.14952 9.16943 7.03953C9.17229 7.55748 8.80531 8.00723 8.29688 8.10889C7.94041 8.18011 7.57371 8.0693 7.31642 7.81201L5.90907 6.40465L5.42494 7.07223C5.37469 7.14152 4.19155 8.77323 3.97616 9.09925C2.92434 10.6915 2.37589 12.5462 2.3901 14.463C2.40915 17.023 3.41588 19.4214 5.22484 21.2165C7.0337 23.0115 9.43981 24 11.9999 24C17.2989 24 21.6099 19.6889 21.6099 14.39C21.61 12.4687 20.6686 10.3271 19.0274 8.51439ZM12 22.5925C9.81373 22.5925 7.75973 21.749 6.21632 20.2174C4.67287 18.6858 3.81392 16.6384 3.79764 14.4525C3.78544 12.8162 4.25329 11.2333 5.15057 9.87511C5.26012 9.70931 5.69959 9.0962 6.08106 8.56713L6.32123 8.80729C6.912 9.39806 7.75359 9.65296 8.57303 9.48908C9.74068 9.25553 10.5835 8.22215 10.577 7.03183C10.5729 6.2952 10.6652 5.22283 11.128 4.29707C11.6914 3.17038 12.5336 2.43402 13.1189 2.02454C13.6482 3.37085 14.9899 6.15229 17.984 9.45915C18.6511 10.1958 20.2025 12.151 20.2025 14.39C20.2025 18.9129 16.5228 22.5925 12 22.5925Z" fill="#F15C24"/>
<path d="M13.4265 11.9404L9.01355 18.4029H10.5738L14.9867 11.9404H13.4265Z" fill="#F15C24"/>
<path d="M14.3681 14.8947C13.3895 14.8947 12.6509 15.5501 12.6509 16.6949C12.6509 17.8489 13.3894 18.4952 14.3681 18.4952C15.3467 18.4952 16.0853 17.8489 16.0853 16.6949C16.0853 15.5501 15.3467 14.8947 14.3681 14.8947ZM14.3681 17.4981C14.165 17.4981 13.9619 17.3134 13.9619 16.6949C13.9619 16.0763 14.165 15.8917 14.3681 15.8917C14.5712 15.8917 14.7743 16.0763 14.7743 16.6949C14.7743 17.3134 14.5712 17.4981 14.3681 17.4981Z" fill="#F15C24"/>
<path d="M11.3491 13.6484C11.3491 12.5036 10.6106 11.8481 9.63192 11.8481C8.65329 11.8481 7.91473 12.5036 7.91473 13.6484C7.91473 14.8024 8.65329 15.4487 9.63192 15.4487C10.6106 15.4487 11.3491 14.8024 11.3491 13.6484ZM9.22572 13.6484C9.22572 13.0298 9.42882 12.8452 9.63192 12.8452C9.83502 12.8452 10.0381 13.0298 10.0381 13.6484C10.0381 14.2669 9.83502 14.4516 9.63192 14.4516C9.42882 14.4516 9.22572 14.2669 9.22572 13.6484Z" fill="#F15C24"/>
</g>
<defs>
<clipPath id="clip0_296_1875">
<rect width="24" height="24" fill="white"/>
</clipPath>
</defs>
</svg>
