<svg width="24" height="24" viewBox="0 0 24 24" fill="none" xmlns="http://www.w3.org/2000/svg">
<g clip-path="url(#clip0_296_1915)">
<path d="M17.9258 4.32175C18.3224 4.32175 18.6439 4.00023 18.6439 3.60362C18.6439 3.20701 18.3224 2.8855 17.9258 2.8855C17.5292 2.8855 17.2076 3.20701 17.2076 3.60362C17.2076 4.00023 17.5292 4.32175 17.9258 4.32175Z" fill="#FFA837"/>
<path d="M23.8107 2.26533L23.6753 1.67287L22.3622 1.63912L22.3284 0.325966L21.736 0.190637C20.2987 -0.137628 18.2711 -0.0354876 16.3119 0.463778C14.8526 0.835684 12.8446 1.57968 11.0123 3.0539C9.21581 3.10022 6.54971 4.30706 5.12527 5.73154C4.74211 6.1147 4.55494 6.60459 4.58396 7.14839C4.62174 7.85686 5.03461 8.65486 5.81105 9.52022C5.96353 9.69019 6.11475 9.84539 6.25379 9.98156C5.78152 11.4496 5.61371 12.8448 5.6633 14.052C3.54858 13.8983 1.20981 14.6645 0.38251 15.6031C0.0188545 16.0156 -0.091911 16.5052 0.0787138 16.9463C0.400229 17.7774 1.28429 17.9361 2.13934 18.0895C3.01646 18.247 4.01072 18.4254 4.79325 19.208C5.57579 19.9905 5.75424 20.9847 5.91169 21.8619C6.06511 22.7169 6.22383 23.601 7.05483 23.9225C7.19067 23.9751 7.33116 24.0009 7.47263 24.0009C7.7903 24.0009 8.11266 23.8704 8.39813 23.6187C9.33675 22.7914 10.103 20.4528 9.94926 18.3379C10.0841 18.3435 10.2213 18.3463 10.3607 18.3463C11.4691 18.3463 12.7158 18.1668 14.0199 17.7473C14.1614 17.8926 14.3248 18.0524 14.5042 18.2134C15.3696 18.9899 16.1676 19.4027 16.8761 19.4405C16.9126 19.4425 16.949 19.4434 16.985 19.4434C17.4852 19.4434 17.9355 19.2565 18.2929 18.8991C19.7316 17.4605 20.9483 14.7555 20.9717 12.959C22.43 11.1348 23.1676 9.14058 23.5374 7.68928C24.0367 5.73023 24.1389 3.70256 23.8107 2.26533ZM6.14686 7.06518C6.14152 6.96586 6.16388 6.90647 6.23199 6.83831C6.88857 6.18183 7.91705 5.55848 8.9392 5.14012C8.06217 6.20597 7.38821 7.29769 6.88603 8.37342C6.48793 7.90983 6.16552 7.41483 6.14686 7.06518ZM17.1862 17.7925C17.1181 17.8606 17.0586 17.8827 16.9598 17.8777C16.6057 17.8592 16.0985 17.5245 15.6266 17.1156C16.7191 16.6058 17.8281 15.919 18.9097 15.022C18.4915 16.0649 17.8563 17.1224 17.1862 17.7925ZM22.0208 7.30279C21.8761 7.87059 21.6686 8.5312 21.3728 9.22978C19.698 9.02348 18.1391 8.26575 16.9373 7.06387C16.0856 6.21215 15.465 5.20443 15.0927 4.0687L13.6055 4.55625C14.055 5.92753 14.8036 7.14356 15.8307 8.17059C17.1485 9.48839 18.8225 10.3631 20.6337 10.6983C20.2 11.4311 19.6577 12.1646 18.9799 12.8423C17.4614 14.3608 15.676 15.5087 13.8167 16.1619C12.2074 16.7272 10.5496 16.9145 9.14878 16.689L7.97958 16.5009L8.26491 17.6502C8.47988 18.5161 8.44149 19.637 8.15963 20.7253C7.97766 21.4281 7.74896 21.9085 7.57135 22.186C7.52677 22.0015 7.48603 21.7741 7.45214 21.5853C7.27383 20.5917 7.02956 19.2308 5.89993 18.1012C4.77029 16.9716 3.40941 16.7273 2.4158 16.549C2.22699 16.5151 1.99965 16.4743 1.81515 16.4298C2.09265 16.2522 2.57307 16.0235 3.27587 15.8415C4.36416 15.5596 5.48499 15.5212 6.35091 15.7362L7.50028 16.0215L7.31217 14.8523C7.08675 13.4515 7.27397 11.7937 7.83928 10.1844C8.49244 8.32509 9.64031 6.53972 11.1588 5.0212C12.9659 3.21417 15.1686 2.37014 16.6985 1.98018C18.3604 1.55662 19.812 1.50689 20.796 1.6185L20.8357 3.16523L22.3825 3.20498C22.4941 4.18931 22.4443 5.64093 22.0208 7.30279Z" fill="#FFA837"/>
</g>
<defs>
<clipPath id="clip0_296_1915">
<rect width="24" height="24" fill="white"/>
</clipPath>
</defs>
</svg>
