<svg width="24" height="24" viewBox="0 0 24 24" fill="none" xmlns="http://www.w3.org/2000/svg">
<path d="M22.1133 15.1653L21.7493 13.807L18.1887 14.7611L16.7744 13.9446L15.6287 12L16.7744 10.0554L18.1887 9.23892L21.7493 10.193L22.1133 8.83467L19.911 8.24456L22.7034 6.63234L22.0002 5.41453L19.2079 7.0267L19.798 4.82442L18.4396 4.46044L17.4856 8.02106L16.0713 8.83758L13.8144 8.85755L12.7032 6.89306V5.26003L15.3098 2.65345L14.3154 1.65909L12.7032 3.27127V0H11.297V3.27127L9.68478 1.65909L8.69042 2.65345L11.297 5.25998V6.89302L10.1858 8.8575L7.92894 8.83753L6.51472 8.02102L5.56063 4.46039L4.20228 4.82438L4.79239 7.02666L2 5.41453L1.29688 6.63234L4.08927 8.24456L1.88694 8.83467L2.25092 10.193L5.81155 9.23892L7.22581 10.0554L8.37153 12L7.22581 13.9446L5.81155 14.7611L2.25092 13.807L1.88694 15.1653L4.08927 15.7554L1.29688 17.3677L2 18.5855L4.79239 16.9733L4.20228 19.1755L5.56063 19.5395L6.51472 15.9789L7.92894 15.1624L10.1858 15.1424L11.297 17.1069V18.74L8.69047 21.3465L9.68483 22.3409L11.297 20.7287V24H12.7032V20.7287L14.3155 22.3409L15.3098 21.3465L12.7032 18.74V17.107L13.8144 15.1425L16.0713 15.1625L17.4856 15.979L18.4396 19.5396L19.798 19.1756L19.2079 16.9733L22.0002 18.5855L22.7034 17.3677L19.911 15.7555L22.1133 15.1653ZM15.0258 13.7468L12.9983 13.7289L12.0001 15.4937L11.0019 13.7289L8.97448 13.7468L10.0037 12L8.97448 10.2532L11.0019 10.2711L12.0001 8.50631L12.9983 10.2711L15.0258 10.2532L13.9965 12L15.0258 13.7468Z" fill="#FFA837"/>
</svg>
