<svg width="24" height="24" viewBox="0 0 24 24" fill="none" xmlns="http://www.w3.org/2000/svg">
<g clip-path="url(#clip0_296_1885)">
<path d="M21.8869 8.60058C20.9039 6.50902 19.3179 5.17321 17.4212 4.83907C17.1219 4.78631 16.816 4.75962 16.5119 4.75962C15.1932 4.75962 13.8807 5.25317 12.7032 6.17272V3.76672C12.7033 2.46552 13.7619 1.40691 15.0631 1.40691H15.8126V0H15.0631C12.9861 0 11.2963 1.68975 11.2963 3.76672V6.17272C10.119 5.25312 8.80635 4.75962 7.48766 4.75962C7.18362 4.75962 6.87767 4.78635 6.57837 4.83907C4.68167 5.17321 3.09566 6.50907 2.11265 8.60058C1.16857 10.6092 0.89169 13.095 1.33299 15.5999C1.73809 17.8995 2.72592 20.0131 4.11454 21.5512C5.54007 23.1303 7.28586 24 9.03029 24C9.33441 24 9.64046 23.9733 9.93985 23.9205C10.6749 23.791 11.3656 23.5101 11.9998 23.0834C12.6339 23.5101 13.3247 23.791 14.0598 23.9205C14.3589 23.9732 14.6649 24 14.9692 24H14.9699C16.7141 24 18.4599 23.1304 19.8852 21.5515C21.2737 20.0133 22.2615 17.8997 22.6667 15.6C23.1079 13.095 22.831 10.6092 21.8869 8.60058ZM21.281 15.3558C20.9211 17.3987 20.0545 19.2642 18.8408 20.6087C17.6855 21.8885 16.311 22.5931 14.9698 22.5931C14.9697 22.5931 14.9695 22.5931 14.9694 22.5931C14.7466 22.5931 14.5227 22.5735 14.3039 22.5349C13.6332 22.4168 13.0079 22.1235 12.4453 21.6631L11.9998 21.2986L11.5543 21.6631C10.9918 22.1235 10.3664 22.4168 9.69576 22.5349C9.47675 22.5735 9.25291 22.5931 9.03033 22.5931C7.68913 22.5931 6.31425 21.8883 5.15889 20.6085C3.94506 19.2639 3.07845 17.3985 2.71861 15.3559C2.32721 13.1341 2.56422 10.9475 3.38595 9.19908C4.1688 7.53348 5.38925 6.47713 6.82247 6.22468C7.04139 6.18613 7.26513 6.16658 7.48766 6.16658C8.876 6.16658 10.2897 6.91534 11.4683 8.27497L11.9998 8.88815L12.5313 8.27497C13.7099 6.91534 15.1236 6.16658 16.512 6.16658C16.7344 6.16658 16.9582 6.18613 17.1771 6.22468C18.6104 6.47718 19.8308 7.53348 20.6137 9.19908C21.4354 10.9475 21.6724 13.134 21.281 15.3558Z" fill="#FFA837"/>
<path d="M10.2157 12.9709L9.63625 13.8129C9.13501 14.5412 9.13501 14.8627 9.13501 14.9683C9.13501 15.5643 9.61983 16.049 10.2158 16.049C10.8117 16.049 11.2965 15.5642 11.2965 14.9683C11.2965 14.8627 11.2965 14.5412 10.7953 13.8129L10.2157 12.9709Z" fill="#FFA837"/>
<path d="M13.784 12.9709L13.2046 13.8129C12.7034 14.5412 12.7034 14.8626 12.7034 14.9682C12.7034 15.5642 13.1882 16.049 13.7841 16.049C14.3801 16.049 14.8649 15.5642 14.8649 14.9682C14.8649 14.8626 14.8649 14.5412 14.3636 13.8128L13.784 12.9709Z" fill="#FFA837"/>
</g>
<defs>
<clipPath id="clip0_296_1885">
<rect width="24" height="24" fill="white"/>
</clipPath>
</defs>
</svg>
