<svg width="24" height="24" viewBox="0 0 24 24" fill="none" xmlns="http://www.w3.org/2000/svg">
<g clip-path="url(#clip0_296_1949)">
<path d="M21.2611 18.4881C21.7676 17.029 21.4682 15.6908 20.3953 14.6182L17.8814 12.1048L19.9298 10.0569L19.7077 9.8557C20.1701 9.67225 20.6037 9.3822 21.0007 8.98531L23.7702 6.21651L23.2203 5.71849C23.2004 5.70042 22.8824 5.4154 22.3771 5.12017C22.6324 4.9466 22.8609 4.74361 23.0617 4.51103C24.3736 2.99177 23.9326 0.827458 23.9132 0.736108L23.818 0.287686L23.3695 0.192335C23.2782 0.172945 21.1141 -0.268558 19.5944 1.04296C19.3617 1.24378 19.1589 1.47237 18.9853 1.72759C18.6901 1.22218 18.4051 0.90403 18.3871 0.884122L17.8891 0.334044L15.1196 3.10289C14.7227 3.49968 14.432 3.9329 14.2484 4.39501L14.0487 4.17438L11.9998 6.22287L9.95082 4.17438L9.75113 4.39501C9.56758 3.9329 9.27683 3.49968 8.87994 3.10289L6.11049 0.334044L5.61265 0.884122C5.59462 0.904077 5.30956 1.22218 5.01442 1.72759C4.84081 1.47237 4.63792 1.24373 4.40528 1.04296C2.8856 -0.268652 0.721476 0.172898 0.630079 0.192288L0.181704 0.287686L0.0864478 0.736108C0.0670106 0.827458 -0.373975 2.99177 0.937921 4.51103C1.13879 4.74366 1.36723 4.9466 1.62251 5.12017C1.11723 5.4154 0.799272 5.70042 0.779317 5.71849L0.22938 6.21651L2.99888 8.98531C3.39591 9.38224 3.82955 9.6723 4.2919 9.8557L4.06976 10.0569L6.11825 12.1048L3.60431 14.6182C2.5314 15.6908 2.23198 17.029 2.73852 18.4881C2.91327 18.9915 3.15847 19.4226 3.36682 19.7357L0.205707 22.8961L1.20397 23.8946L4.36612 20.7358C4.67933 20.9445 5.11095 21.1903 5.61519 21.3655C6.07702 21.526 6.52648 21.6056 6.95951 21.6056C7.89457 21.6056 8.75207 21.2338 9.48541 20.5006L11.9998 17.9869L14.5141 20.5006C15.2475 21.2338 16.1049 21.6056 17.0401 21.6056C17.473 21.6056 17.9226 21.526 18.3844 21.3655C18.8886 21.1903 19.3202 20.9445 19.6334 20.7358L22.7956 23.8946L23.7939 22.8961L20.6327 19.7357C20.8411 19.4226 21.0863 18.9915 21.2611 18.4881ZM19.6397 4.42871C19.6551 4.30131 19.6634 4.17231 19.6643 4.04171C19.7497 3.17852 20.0327 2.53299 20.511 2.11695C21.0804 1.6217 21.8461 1.51689 22.3924 1.51689C22.4597 1.51689 22.5237 1.51844 22.5835 1.52113C22.607 2.06579 22.5433 2.95111 21.9931 3.5883C21.577 4.07013 20.9298 4.35492 20.063 4.44048C19.9325 4.44137 19.8036 4.44956 19.6764 4.46495C19.6635 4.46533 19.6511 4.46617 19.6382 4.4665C19.6385 4.45366 19.6393 4.44142 19.6397 4.42871ZM18.5593 6.54332C19.2212 5.88156 20.0573 5.70828 20.9331 6.00181C21.2044 6.09274 21.4507 6.2143 21.6561 6.3337L20.0025 7.9869C19.3285 8.66071 18.552 8.83795 17.6287 8.52842C17.3575 8.43749 17.1111 8.31592 16.9058 8.19652L18.5593 6.54332ZM17.8157 10.174L16.8666 11.1229C16.7726 11.0071 15.5879 9.81104 15.5879 9.81104C16.0436 9.64707 16.5419 9.65752 17.0927 9.84215C17.3639 9.93307 17.6103 10.0546 17.8157 10.174ZM16.1179 4.10134L17.7716 2.44809C18.3745 3.48617 18.4508 4.65532 17.561 5.54487L15.9074 7.19812C15.7933 7.00163 15.6771 6.76758 15.5877 6.50986C15.2619 5.57151 15.4354 4.78371 16.1179 4.10134ZM15.5622 11.7818C16.2205 12.44 16.4047 13.1962 16.1247 14.0915C16.0175 14.3801 15.9616 14.5529 15.7725 14.8785L14.119 13.2253C13.445 12.5514 13.2676 11.775 13.5768 10.8516C13.6465 10.6436 13.7342 10.4504 13.8251 10.2789L13.942 10.162L15.5622 11.7818ZM13.9312 6.28847C14.0453 6.48496 14.1615 6.71901 14.2509 6.97673C14.4469 7.54159 14.4619 8.05185 14.294 8.5175L12.9979 7.22151L13.9312 6.28847ZM9.73683 7.01156C9.82766 6.74028 9.94918 6.49391 10.0685 6.28852L11.7221 7.94172C12.3961 8.61558 12.5734 9.39198 12.2642 10.3154C12.1734 10.5867 12.0518 10.8331 11.9325 11.0385L10.2789 9.38525C9.60491 8.71135 9.42762 7.93495 9.73683 7.01156ZM9.28069 10.3837L10.9344 12.037C10.7379 12.1511 10.5038 12.2674 10.2461 12.3568C9.30789 12.6828 8.52005 12.5095 7.83753 11.8272L6.18386 10.1739C6.3803 10.0598 6.6144 9.94352 6.87207 9.85405C7.81033 9.52809 8.59817 9.70138 9.28069 10.3837ZM5.89644 3.17117C5.98727 2.8999 6.10879 2.65352 6.2281 2.44814L7.88168 4.10134C8.55567 4.77519 8.73301 5.5516 8.4238 6.47503C8.33297 6.74631 8.2114 6.99269 8.0921 7.19807L6.43852 5.54487C5.77666 4.88306 5.60319 4.04693 5.89644 3.17117ZM2.01168 3.59418C1.45524 2.95482 1.39138 2.06753 1.41538 1.52179C1.96009 1.49854 2.84541 1.56174 3.48269 2.11173C3.96458 2.52767 4.2495 3.17489 4.3353 4.04152C4.33624 4.17217 4.34447 4.30122 4.35991 4.42867C4.36029 4.44137 4.36113 4.45361 4.36146 4.46641C4.34847 4.46608 4.336 4.46528 4.32311 4.46486C4.19608 4.44951 4.06746 4.44137 3.93723 4.44043C3.07376 4.35529 2.42795 4.07254 2.01168 3.59418ZM3.99714 7.98686L2.34347 6.33356C2.53992 6.21939 2.77396 6.10314 3.03168 6.01367C3.9193 5.70536 4.76706 5.87027 5.4403 6.54328L7.09397 8.19657C6.89753 8.31075 6.66344 8.42699 6.40576 8.51646C5.46746 8.84242 4.67961 8.66918 3.99714 7.98686ZM4.07235 18.0251C3.74663 17.0868 3.92006 16.299 4.60257 15.6166L6.25624 13.9634C6.44525 14.2888 6.5013 14.4626 6.60889 14.7519C6.8884 15.6463 6.70377 16.4022 6.04573 17.0601L4.3921 18.7133C4.27797 18.5169 4.16182 18.2829 4.07235 18.0251ZM8.48715 19.5022C7.81315 20.176 7.03665 20.3532 6.11336 20.0437C5.84213 19.9528 5.59575 19.8312 5.39041 19.7118L7.04399 18.0586C7.7058 17.397 8.46649 17.2146 9.36789 17.5011C9.65136 17.6054 9.80822 17.6556 10.1408 17.849L8.48715 19.5022ZM9.99591 16.224C9.52913 16.0525 8.99524 15.8283 8.63526 15.4682C8.26971 15.1024 8.05021 14.5632 7.87438 14.0903C7.84176 13.986 7.81588 13.8836 7.79583 13.7829L10.3224 16.309C10.2157 16.2879 10.1068 16.2594 9.99591 16.224ZM11.6776 15.6673L10.0239 14.014C10.2204 13.8999 10.4544 13.7836 10.7121 13.6942C11.6504 13.3682 12.4383 13.5415 13.1207 14.2238L14.7744 15.8771C14.4445 16.0687 14.2806 16.1215 13.995 16.2272C13.0967 16.511 12.3378 16.3274 11.6776 15.6673ZM17.921 20.0318C16.9828 20.3577 16.1949 20.1845 15.5124 19.5022L13.8587 17.8489C14.1997 17.6507 14.3512 17.6048 14.6381 17.4988C15.5365 17.215 16.2953 17.3985 16.9556 18.0586L18.6092 19.7119C18.4128 19.8261 18.1787 19.9423 17.921 20.0318ZM19.9391 17.9903C19.8483 18.2616 19.7267 18.508 19.6074 18.7133L17.9538 17.0601C17.2955 16.4019 17.1113 15.6457 17.3913 14.7504C17.4985 14.4618 17.5544 14.2888 17.7434 13.9634L19.397 15.6166C20.071 16.2905 20.2484 17.0669 19.9391 17.9903Z" fill="#FFA837"/>
</g>
<defs>
<clipPath id="clip0_296_1949">
<rect width="24" height="24" fill="white"/>
</clipPath>
</defs>
</svg>
