<svg width="24" height="24" viewBox="0 0 24 24" fill="none" xmlns="http://www.w3.org/2000/svg">
<g clip-path="url(#clip0_296_1969)">
<path d="M15.0565 0L9.47433 5.64093L9.94527 7.05359C9.75338 7.03748 9.56148 7.01422 9.37014 7.01422H3.62081C1.41714 7.01422 -0.274758 8.98242 0.0365214 11.1614C0.314109 13.1041 2.06441 14.4243 3.93648 14.2575C3.38113 15.9034 3.5364 17.5153 4.35982 18.7018L2.3279 20.7338L3.32162 21.7275L5.35445 19.6946C6.07186 20.1925 6.94399 20.4472 7.88607 20.4472C8.46963 20.4472 9.07992 20.3492 9.69588 20.1522L9.70467 20.161C9.60708 21.9803 10.9062 23.6627 12.8098 23.9346C14.9898 24.2461 16.9102 22.5527 16.9102 20.3505V14.601C16.9102 14.4278 16.9361 14.2555 16.9245 14.0843L18.4168 14.5818L23.9995 8.99909L21.7647 2.29486L15.0565 0ZM16.007 10.9711C15.6717 10.368 15.2506 9.80768 14.7492 9.30615C14.2565 8.8136 13.6938 8.38953 13.0885 8.04547C13.9066 7.5033 15.0226 7.59229 15.7428 8.31244C16.4644 9.03406 16.5523 10.1526 16.007 10.9711ZM5.38631 13.855L5.39767 13.8508L5.39584 13.8459L6.81747 13.299L10.6722 17.1537L10.1203 18.5891L5.38631 13.855ZM11.4526 15.1249L11.2243 15.7185L8.25283 12.7469L9.68819 12.1948L11.7763 14.2831L11.4526 15.1249ZM11.1236 11.6428L13.0815 10.8896L12.3284 12.8478L11.1236 11.6428ZM1.42776 10.9627C1.23696 9.62787 2.27407 8.41956 3.62081 8.41956H9.37014C10.5449 8.41956 11.754 8.82111 12.7772 9.50116L4.41604 12.717C3.08614 13.2285 1.62881 12.3702 1.42776 10.9627ZM5.80581 18.2496C5.14846 17.592 4.89559 16.6088 5.06588 15.5222L8.53316 18.9895C7.44662 19.1596 6.46316 18.9069 5.80581 18.2496ZM13.0086 22.5436C11.6009 22.3423 10.7429 20.885 11.2543 19.5553L13.4159 13.9351L14.479 11.1707C15.1667 12.1736 15.5049 13.3586 15.5049 14.601V20.3505C15.5049 21.6987 14.3418 22.7338 13.0086 22.5436ZM18.0373 12.9739L16.6477 12.5107C16.6372 12.4744 16.6268 12.4382 16.6158 12.4019C17.8988 11.2341 18.1083 9.34735 17.2323 7.94348C17.5346 7.78125 17.8743 7.69501 18.2271 7.69501C18.7902 7.69501 19.3195 7.91437 19.7176 8.31244L20.7113 7.31873C20.0479 6.65515 19.1656 6.28986 18.2271 6.28986C18.059 6.28986 17.8926 6.30158 17.7291 6.32465C17.8787 5.26758 17.5478 4.15521 16.7367 3.34406L15.7429 4.33759C16.4144 5.0094 16.5369 6.0249 16.111 6.82251C14.7165 5.95276 12.8466 6.15363 11.6764 7.41504C11.628 7.39893 11.5799 7.383 11.5313 7.36798L11.0807 6.01556L15.4355 1.61481L20.6516 3.39935L22.3917 8.61951L18.0373 12.9739Z" fill="#FFA837"/>
</g>
<defs>
<clipPath id="clip0_296_1969">
<rect width="24" height="24" fill="white"/>
</clipPath>
</defs>
</svg>
