<svg width="24" height="24" viewBox="0 0 24 24" fill="none" xmlns="http://www.w3.org/2000/svg">
<g clip-path="url(#clip0_296_1906)">
<path d="M21.9755 18.9398C22.9538 18.0533 23.538 16.858 23.538 15.559C23.538 14.6018 23.2173 13.6746 22.6106 12.8776C22.1439 12.2645 21.7803 11.5267 21.5298 10.6848C21.2092 9.60707 20.6209 8.58361 19.8129 7.68746C20.1711 7.87336 20.5706 7.97306 20.9859 7.97306C21.6676 7.97306 22.3085 7.70756 22.7904 7.22555C23.2725 6.74354 23.5379 6.10266 23.5379 5.42096C23.5379 4.73926 23.2725 4.09834 22.7905 3.61638C22.4097 3.23561 21.919 2.98933 21.3972 2.90346C21.3114 2.38165 21.0651 1.89101 20.6844 1.51025C19.6893 0.51514 18.0702 0.51514 17.0751 1.51025C16.2524 2.33299 16.1099 3.58216 16.6476 4.55261L16.0816 5.11862C14.6043 4.51056 12.9544 4.18989 11.2767 4.18989C8.49044 4.18989 5.86418 5.05309 3.8818 6.62054C1.85081 8.22638 0.732325 10.3763 0.732325 12.6742C0.732325 14.3132 1.3086 15.9011 2.39896 17.2664C2.89405 17.8863 3.48603 18.4476 4.15602 18.9398H0V19.6429C0 21.6245 1.61217 23.2367 3.59375 23.2367H20.4063C22.3878 23.2367 24 21.6245 24 19.6429V18.9398H21.9755ZM18.5667 4.62217L18.0695 4.12502C17.6228 3.67825 17.6228 2.95132 18.0695 2.50455C18.5163 2.05774 19.2433 2.05784 19.69 2.50455C19.9502 2.76466 20.0676 3.12302 20.0124 3.48789L19.8695 4.4313L20.8129 4.28837C21.1777 4.23316 21.536 4.35058 21.7961 4.61069C22.0126 4.82711 22.1317 5.11487 22.1317 5.42092C22.1317 5.72696 22.0126 6.01473 21.7961 6.23115C21.5797 6.44757 21.2919 6.56677 20.9859 6.56677C20.6799 6.56677 20.3921 6.44757 20.1757 6.23115L19.6785 5.73399L17.1247 8.28783C16.9798 8.07178 16.8131 7.86685 16.6235 7.67724C16.4348 7.48852 16.2306 7.32085 16.0143 7.17469L18.5667 4.62217ZM15.6291 8.67155C16.5756 9.61804 16.6766 11.1339 15.8639 12.1975L13.1579 15.7391C12.646 16.409 11.8682 16.7932 11.0241 16.7932C10.3088 16.7932 9.63568 16.5141 9.12892 16.0074L8.29333 15.1718C7.74635 14.6247 7.46205 13.8683 7.51347 13.0964C7.56485 12.3245 7.94688 11.6125 8.56159 11.1428L12.1032 8.4368C12.575 8.07628 13.1379 7.88569 13.7311 7.88569C14.4482 7.88569 15.1223 8.16478 15.6291 8.67155ZM2.13857 12.6742C2.13857 8.77134 6.23796 5.59614 11.2767 5.59614C12.5639 5.59614 13.8294 5.80688 14.9913 6.20884L14.6226 6.57755C14.3331 6.51352 14.0347 6.47949 13.731 6.47949C12.8266 6.47949 11.9685 6.76993 11.2493 7.31944L7.70777 10.0254C6.77088 10.7413 6.1886 11.8266 6.11027 13.003C6.03195 14.1795 6.46516 15.3324 7.29892 16.1661L8.13452 17.0017C8.90692 17.7741 9.9331 18.1995 11.024 18.1995C12.3101 18.1995 13.4951 17.6139 14.2752 16.5929L16.9812 13.0513C17.7339 12.0662 17.9715 10.8268 17.7191 9.68203L18.7704 8.63072C19.4377 9.37115 19.9212 10.2094 20.182 11.0858C20.4811 12.0911 20.9217 12.9805 21.4917 13.7293C21.9104 14.2794 22.1317 14.9121 22.1317 15.559C22.1317 17.1464 20.8243 18.5284 18.9446 18.9398H7.02921C4.00892 17.7116 2.13857 15.3206 2.13857 12.6742ZM20.4063 21.8304H3.59375C2.63338 21.8304 1.8156 21.2084 1.52217 20.346H22.4779C22.1844 21.2084 21.3666 21.8304 20.4063 21.8304Z" fill="#FFA837"/>
</g>
<defs>
<clipPath id="clip0_296_1906">
<rect width="24" height="24" fill="white"/>
</clipPath>
</defs>
</svg>
