<svg width="24" height="24" viewBox="0 0 24 24" fill="none" xmlns="http://www.w3.org/2000/svg">
<g clip-path="url(#clip0_296_1896)">
<path d="M23.0879 5.54788L22.478 4.93798C21.79 4.24998 20.8579 3.95161 19.9579 4.04223C20.0485 3.14221 19.7501 2.21013 19.0621 1.52208L18.4522 0.91218C17.2363 -0.303734 15.2578 -0.303734 14.0419 0.91218L12.8553 2.09875L15.6703 4.91379C15.9937 5.23719 16.1718 5.66718 16.1718 6.12455C16.1718 6.58192 15.9938 7.01191 15.6703 7.33531L15.2618 7.74383C14.3766 6.88567 13.1683 6.43472 11.936 6.50537C10.6794 6.57727 9.5097 7.18408 8.72673 8.17026C7.13323 10.1772 5.7397 12.0561 4.58482 13.7546C3.18319 15.8161 1.89836 17.9857 1.05985 19.7069C0.627652 20.5941 0.323896 21.3383 0.157112 21.9188C-0.0109384 22.5036 -0.145332 23.2334 0.310677 23.6894C0.542197 23.9209 0.844266 24.0003 1.16218 24.0003C1.47039 24.0003 1.79346 23.9257 2.08132 23.8429C2.66179 23.6762 3.40594 23.3724 4.29321 22.9402C6.01449 22.1017 8.18396 20.8169 10.2455 19.4153C11.9444 18.2601 13.8232 16.8666 15.8298 15.2734C16.816 14.4904 17.4228 13.3207 17.4947 12.0641C17.5653 10.8314 17.1143 9.62346 16.2563 8.7383L16.6712 8.32336C17.3393 7.66222 18.4209 7.66428 19.0863 8.32973L21.9013 11.1448L23.0879 9.9582C24.3038 8.74224 24.3038 6.76379 23.0879 5.54788ZM14.8442 2.09875L15.0363 1.90656C15.704 1.239 16.7903 1.239 17.4578 1.90656L18.0677 2.51646C18.7353 3.18407 18.7353 4.27037 18.0677 4.93798L17.5143 5.49139C17.393 4.89987 17.1017 4.3562 16.6648 3.91936L14.8442 2.09875ZM16.0908 11.9837C16.0418 12.8404 15.6279 13.638 14.9554 14.172C14.5306 14.5093 14.1121 14.8369 13.6996 15.1555L11.8816 13.3374L10.8872 14.3318L12.571 16.0156C11.4772 16.8374 10.4347 17.586 9.45476 18.2523C8.91583 18.6187 8.37277 18.9747 7.83384 19.316L6.25895 17.7411L5.26457 18.7355L6.60302 20.0739C5.71927 20.602 4.86584 21.077 4.08377 21.4737C2.6166 22.218 1.83157 22.4689 1.44793 22.5522C1.53123 22.1685 1.78211 21.3835 2.52631 19.9163C3.34158 18.3091 4.48563 16.4016 5.74786 14.5453C5.88347 14.3458 6.02269 14.1437 6.16501 13.9391L7.85034 15.6245L8.84472 14.6301L6.99082 12.7762C7.80618 11.649 8.7107 10.4571 9.695 9.21311L11.6316 11.1497L12.626 10.1553L10.745 8.27432C11.1329 8.06249 11.5663 7.93508 12.0165 7.9093C12.0738 7.90607 12.131 7.90443 12.188 7.90443C12.9833 7.90443 13.7511 8.22046 14.3166 8.78597L15.2143 9.6836C15.8203 10.2897 16.1398 11.128 16.0908 11.9837ZM22.0935 8.96377L21.9013 9.15597L20.0807 7.33531C19.6339 6.88848 19.0842 6.60587 18.5071 6.48746L19.0621 5.93236C19.7297 5.26475 20.816 5.26475 21.4836 5.93236L22.0935 6.54226C22.7611 7.20987 22.7611 8.29617 22.0935 8.96377Z" fill="#FFA837"/>
</g>
<defs>
<clipPath id="clip0_296_1896">
<rect width="24" height="24" fill="white"/>
</clipPath>
</defs>
</svg>
